G75*
%MOIN*%
%OFA0B0*%
%FSLAX24Y24*%
%IPPOS*%
%LPD*%
%AMOC8*
5,1,8,0,0,1.08239X$1,22.5*
%
%ADD10C,0.0740*%
%ADD11C,0.0650*%
%ADD12R,0.0787X0.0500*%
%ADD13C,0.0560*%
%ADD14R,0.1600X0.0600*%
%ADD15R,0.1600X0.0500*%
%ADD16C,0.0160*%
%ADD17C,0.0100*%
%ADD18C,0.0080*%
%ADD19C,0.0400*%
%ADD20C,0.0436*%
%ADD21C,0.0476*%
%ADD22C,0.0440*%
%ADD23C,0.0400*%
D10*
X002558Y008692D03*
X002558Y009692D03*
X002558Y010692D03*
X002058Y012692D03*
X002058Y013692D03*
X002058Y014692D03*
X002058Y015692D03*
X002058Y016692D03*
X002058Y017692D03*
X002058Y018692D03*
X002058Y019692D03*
X002058Y020692D03*
X002058Y021692D03*
X002058Y022692D03*
X006058Y024192D03*
X007058Y024192D03*
X008058Y024192D03*
X009058Y024192D03*
X010058Y024192D03*
X011058Y024192D03*
X012058Y020192D03*
X012058Y016192D03*
X015058Y016692D03*
X015058Y017692D03*
X015058Y018692D03*
X015058Y019692D03*
X015058Y020692D03*
X015058Y021692D03*
X015058Y022692D03*
X015058Y015692D03*
X015058Y014692D03*
X015058Y013692D03*
X015058Y012692D03*
X015058Y011692D03*
X015058Y010692D03*
D11*
X013558Y014192D03*
X013558Y015192D03*
X012058Y021692D03*
X012058Y022692D03*
X005558Y020192D03*
X004558Y020192D03*
X003558Y020692D03*
X003558Y021692D03*
X003558Y023692D03*
X004558Y023692D03*
D12*
X006127Y007074D03*
X006127Y002349D03*
X013804Y002349D03*
X013804Y003137D03*
X013804Y003924D03*
X013804Y004711D03*
X013804Y006286D03*
X013804Y007074D03*
D13*
X010338Y009192D02*
X009778Y009192D01*
X009778Y010192D02*
X010338Y010192D01*
X010338Y011192D02*
X009778Y011192D01*
X009778Y012192D02*
X010338Y012192D01*
X010338Y013192D02*
X009778Y013192D01*
X009778Y014192D02*
X010338Y014192D01*
X010338Y015192D02*
X009778Y015192D01*
X009778Y016192D02*
X010338Y016192D01*
X010338Y017192D02*
X009778Y017192D01*
X009778Y018192D02*
X010338Y018192D01*
X010338Y019192D02*
X009778Y019192D01*
X009778Y020192D02*
X010338Y020192D01*
X010338Y021192D02*
X009778Y021192D01*
X009778Y022192D02*
X010338Y022192D01*
X007338Y022192D02*
X006778Y022192D01*
X006778Y021192D02*
X007338Y021192D01*
X007338Y020192D02*
X006778Y020192D01*
X006778Y019192D02*
X007338Y019192D01*
X007338Y018192D02*
X006778Y018192D01*
X006778Y017192D02*
X007338Y017192D01*
X007338Y016192D02*
X006778Y016192D01*
X006778Y015192D02*
X007338Y015192D01*
X007338Y014192D02*
X006778Y014192D01*
X006778Y013192D02*
X007338Y013192D01*
X007338Y012192D02*
X006778Y012192D01*
X006778Y011192D02*
X007338Y011192D01*
X007338Y010192D02*
X006778Y010192D01*
X006778Y009192D02*
X007338Y009192D01*
D14*
X015245Y007276D03*
X015245Y005276D03*
D15*
X015245Y006276D03*
D16*
X002940Y006732D02*
X002940Y000440D01*
X016420Y000440D01*
X016420Y025920D01*
X000440Y025920D01*
X000440Y006940D01*
X002732Y006940D01*
X002827Y006900D01*
X002900Y006827D01*
X002940Y006732D01*
X002924Y006770D02*
X003450Y006770D01*
X003450Y006612D02*
X002940Y006612D01*
X002940Y006453D02*
X003450Y006453D01*
X003450Y006295D02*
X002940Y006295D01*
X002940Y006136D02*
X003450Y006136D01*
X003450Y005978D02*
X002940Y005978D01*
X002940Y005819D02*
X003450Y005819D01*
X003450Y005661D02*
X002940Y005661D01*
X002940Y005502D02*
X003450Y005502D01*
X003450Y005344D02*
X002940Y005344D01*
X002940Y005185D02*
X003450Y005185D01*
X003450Y005027D02*
X002940Y005027D01*
X002940Y004868D02*
X003450Y004868D01*
X003450Y004710D02*
X002940Y004710D01*
X002940Y004551D02*
X003600Y004551D01*
X003450Y004701D02*
X005554Y002598D01*
X005554Y002025D01*
X005659Y001919D01*
X006596Y001919D01*
X006701Y002025D01*
X006701Y002674D01*
X006596Y002779D01*
X006023Y002779D01*
X003910Y004892D01*
X003910Y012665D01*
X003775Y012800D01*
X003588Y012987D01*
X003588Y018697D01*
X003668Y018777D01*
X003675Y018774D01*
X003841Y018774D01*
X003995Y018838D01*
X004112Y018955D01*
X004176Y019109D01*
X004176Y019275D01*
X004112Y019428D01*
X003995Y019546D01*
X003841Y019610D01*
X003675Y019610D01*
X003521Y019546D01*
X003404Y019428D01*
X003340Y019275D01*
X003340Y019109D01*
X003343Y019102D01*
X003263Y019022D01*
X003128Y018887D01*
X003128Y012797D01*
X003263Y012662D01*
X003450Y012474D01*
X003450Y004701D01*
X003759Y004393D02*
X002940Y004393D01*
X002940Y004234D02*
X003917Y004234D01*
X004076Y004076D02*
X002940Y004076D01*
X002940Y003917D02*
X004234Y003917D01*
X004393Y003759D02*
X002940Y003759D01*
X002940Y003600D02*
X004551Y003600D01*
X004710Y003442D02*
X002940Y003442D01*
X002940Y003283D02*
X004868Y003283D01*
X005027Y003125D02*
X002940Y003125D01*
X002940Y002966D02*
X005185Y002966D01*
X005344Y002808D02*
X002940Y002808D01*
X002940Y002649D02*
X005502Y002649D01*
X005554Y002491D02*
X002940Y002491D01*
X002940Y002332D02*
X005554Y002332D01*
X005554Y002174D02*
X005091Y002174D01*
X005106Y002168D02*
X004959Y002228D01*
X004801Y002228D01*
X004654Y002168D01*
X004542Y002056D01*
X004482Y001909D01*
X004482Y001751D01*
X004542Y001604D01*
X004654Y001492D01*
X004801Y001432D01*
X004959Y001432D01*
X004965Y001434D01*
X005739Y000660D01*
X014871Y000660D01*
X015000Y000789D01*
X016050Y001839D01*
X016050Y003371D01*
X015921Y003500D01*
X014625Y004796D01*
X015175Y004796D01*
X015175Y005206D01*
X015315Y005206D01*
X015315Y005346D01*
X016225Y005346D01*
X016225Y005599D01*
X016212Y005645D01*
X016189Y005686D01*
X016155Y005720D01*
X016114Y005743D01*
X016068Y005756D01*
X015315Y005756D01*
X015315Y005346D01*
X015175Y005346D01*
X015175Y005756D01*
X014421Y005756D01*
X014375Y005743D01*
X014334Y005720D01*
X014301Y005686D01*
X014277Y005645D01*
X014265Y005599D01*
X014265Y005346D01*
X015175Y005346D01*
X015175Y005206D01*
X014265Y005206D01*
X014265Y005141D01*
X013336Y005141D01*
X013231Y005036D01*
X013231Y004387D01*
X013300Y004318D01*
X013266Y004284D01*
X013159Y004328D01*
X013001Y004328D01*
X012854Y004268D01*
X012742Y004156D01*
X012682Y004009D01*
X012682Y003851D01*
X012742Y003704D01*
X012854Y003592D01*
X013001Y003532D01*
X013159Y003532D01*
X013258Y003573D01*
X013300Y003530D01*
X013231Y003461D01*
X013231Y002812D01*
X013300Y002743D01*
X013231Y002674D01*
X013231Y002025D01*
X013336Y001919D01*
X014273Y001919D01*
X014378Y002025D01*
X014378Y002067D01*
X015111Y002800D01*
X015256Y002800D01*
X015395Y002858D01*
X015502Y002965D01*
X015560Y003104D01*
X015560Y003239D01*
X015610Y003189D01*
X015610Y002021D01*
X014689Y001100D01*
X005921Y001100D01*
X005276Y001745D01*
X005278Y001751D01*
X005278Y001909D01*
X005218Y002056D01*
X005106Y002168D01*
X005234Y002015D02*
X005563Y002015D01*
X005278Y001857D02*
X015445Y001857D01*
X015604Y002015D02*
X014368Y002015D01*
X014485Y002174D02*
X015610Y002174D01*
X015610Y002332D02*
X014643Y002332D01*
X014802Y002491D02*
X015610Y002491D01*
X015610Y002649D02*
X014960Y002649D01*
X015274Y002808D02*
X015610Y002808D01*
X015610Y002966D02*
X015503Y002966D01*
X015560Y003125D02*
X015610Y003125D01*
X015980Y003442D02*
X016420Y003442D01*
X016420Y003600D02*
X015821Y003600D01*
X015663Y003759D02*
X016420Y003759D01*
X016420Y003917D02*
X015504Y003917D01*
X015346Y004076D02*
X016420Y004076D01*
X016420Y004234D02*
X015187Y004234D01*
X015029Y004393D02*
X016420Y004393D01*
X016420Y004551D02*
X014870Y004551D01*
X014712Y004710D02*
X016420Y004710D01*
X016420Y004868D02*
X016190Y004868D01*
X016189Y004865D02*
X016212Y004906D01*
X016225Y004952D01*
X016225Y005206D01*
X015315Y005206D01*
X015315Y004796D01*
X016068Y004796D01*
X016114Y004808D01*
X016155Y004832D01*
X016189Y004865D01*
X016225Y005027D02*
X016420Y005027D01*
X016420Y005185D02*
X016225Y005185D01*
X016420Y005344D02*
X015315Y005344D01*
X015175Y005344D02*
X003910Y005344D01*
X003910Y005502D02*
X014265Y005502D01*
X014286Y005661D02*
X003910Y005661D01*
X003910Y005819D02*
X016420Y005819D01*
X016420Y005661D02*
X016203Y005661D01*
X016225Y005502D02*
X016420Y005502D01*
X016119Y005846D02*
X016225Y005951D01*
X016225Y006600D01*
X016119Y006706D01*
X014370Y006706D01*
X014327Y006662D01*
X014309Y006680D01*
X014342Y006713D01*
X014366Y006754D01*
X014378Y006800D01*
X014378Y006807D01*
X014421Y006796D01*
X015175Y006796D01*
X015175Y007206D01*
X015315Y007206D01*
X015315Y007346D01*
X016225Y007346D01*
X016225Y007599D01*
X016212Y007645D01*
X016189Y007686D01*
X016155Y007720D01*
X016114Y007743D01*
X016068Y007756D01*
X015315Y007756D01*
X015315Y007346D01*
X015175Y007346D01*
X015175Y007756D01*
X014421Y007756D01*
X014375Y007743D01*
X014334Y007720D01*
X014301Y007686D01*
X014277Y007645D01*
X014265Y007599D01*
X014265Y007492D01*
X014222Y007504D01*
X013849Y007504D01*
X013849Y007119D01*
X013759Y007119D01*
X013759Y007029D01*
X013231Y007029D01*
X013231Y006800D01*
X013243Y006754D01*
X013267Y006713D01*
X013300Y006680D01*
X013231Y006611D01*
X013231Y005962D01*
X013336Y005856D01*
X014273Y005856D01*
X014312Y005896D01*
X014320Y005896D01*
X014370Y005846D01*
X016119Y005846D01*
X016225Y005978D02*
X016420Y005978D01*
X016420Y006136D02*
X016225Y006136D01*
X016225Y006295D02*
X016420Y006295D01*
X016420Y006453D02*
X016225Y006453D01*
X016213Y006612D02*
X016420Y006612D01*
X016420Y006770D02*
X014370Y006770D01*
X014265Y007029D02*
X013849Y007029D01*
X013849Y006716D01*
X013759Y006716D01*
X013759Y007029D01*
X013849Y007029D01*
X013849Y007119D01*
X014265Y007119D01*
X014265Y007029D01*
X014265Y007087D02*
X013849Y007087D01*
X013759Y007087D02*
X006701Y007087D01*
X006701Y006929D02*
X013231Y006929D01*
X013239Y006770D02*
X006701Y006770D01*
X006701Y006749D02*
X006596Y006644D01*
X005659Y006644D01*
X005554Y006749D01*
X005554Y007322D01*
X005250Y007626D01*
X005250Y009997D01*
X005142Y010104D01*
X005082Y010251D01*
X005082Y010409D01*
X005142Y010556D01*
X005254Y010668D01*
X005401Y010728D01*
X005559Y010728D01*
X005706Y010668D01*
X005818Y010556D01*
X005878Y010409D01*
X005878Y010251D01*
X005818Y010104D01*
X005710Y009997D01*
X005710Y007816D01*
X006023Y007504D01*
X006596Y007504D01*
X006701Y007398D01*
X006701Y006749D01*
X006701Y007246D02*
X013231Y007246D01*
X013231Y007347D02*
X013231Y007119D01*
X013759Y007119D01*
X013759Y007504D01*
X013387Y007504D01*
X013341Y007491D01*
X013300Y007468D01*
X013267Y007434D01*
X013243Y007393D01*
X013231Y007347D01*
X013249Y007404D02*
X006695Y007404D01*
X005964Y007563D02*
X014265Y007563D01*
X014336Y007721D02*
X005805Y007721D01*
X005710Y007880D02*
X016420Y007880D01*
X016420Y008038D02*
X005710Y008038D01*
X005710Y008197D02*
X016420Y008197D01*
X016420Y008355D02*
X005710Y008355D01*
X005710Y008514D02*
X008911Y008514D01*
X008963Y008462D02*
X008828Y008597D01*
X007611Y009814D01*
X007599Y009802D01*
X007429Y009732D01*
X006686Y009732D01*
X006517Y009802D01*
X006388Y009931D01*
X006350Y010023D01*
X006350Y009870D01*
X006356Y009868D01*
X006468Y009756D01*
X006528Y009609D01*
X006528Y009586D01*
X006686Y009652D01*
X007429Y009652D01*
X007599Y009582D01*
X007728Y009452D01*
X007798Y009283D01*
X007798Y009100D01*
X007728Y008931D01*
X007599Y008802D01*
X007429Y008732D01*
X006686Y008732D01*
X006517Y008802D01*
X006388Y008931D01*
X006318Y009100D01*
X006318Y009177D01*
X006209Y009132D01*
X006051Y009132D01*
X005904Y009192D01*
X005792Y009304D01*
X005732Y009451D01*
X005732Y009609D01*
X005792Y009756D01*
X005904Y009868D01*
X005910Y009870D01*
X005910Y010221D01*
X006460Y010771D01*
X006504Y010815D01*
X006388Y010931D01*
X006318Y011100D01*
X006318Y011283D01*
X006388Y011452D01*
X006517Y011582D01*
X006686Y011652D01*
X007429Y011652D01*
X007599Y011582D01*
X007611Y011570D01*
X008328Y012287D01*
X008328Y014287D01*
X008643Y014602D01*
X008640Y014609D01*
X008640Y014775D01*
X008704Y014928D01*
X008821Y015046D01*
X008975Y015110D01*
X009141Y015110D01*
X009295Y015046D01*
X009373Y014968D01*
X009318Y015100D01*
X009318Y015283D01*
X009388Y015452D01*
X009397Y015462D01*
X009153Y015462D01*
X008288Y014597D01*
X008288Y012597D01*
X008153Y012462D01*
X008153Y012462D01*
X007798Y012107D01*
X007798Y012100D01*
X007728Y011931D01*
X007599Y011802D01*
X007429Y011732D01*
X006686Y011732D01*
X006517Y011802D01*
X006388Y011931D01*
X006318Y012100D01*
X006318Y012283D01*
X006388Y012452D01*
X006517Y012582D01*
X006686Y012652D01*
X007429Y012652D01*
X007599Y012582D01*
X007611Y012570D01*
X007828Y012787D01*
X007828Y014637D01*
X007788Y014597D01*
X007686Y014494D01*
X007728Y014452D01*
X007798Y014283D01*
X007798Y014100D01*
X007728Y013931D01*
X007599Y013802D01*
X007429Y013732D01*
X006686Y013732D01*
X006517Y013802D01*
X006388Y013931D01*
X006318Y014100D01*
X006318Y014283D01*
X006388Y014452D01*
X006397Y014462D01*
X006394Y014462D01*
X006285Y014353D01*
X006138Y014292D01*
X005978Y014292D01*
X005831Y014353D01*
X005719Y014465D01*
X005658Y014612D01*
X005658Y014771D01*
X005719Y014918D01*
X005831Y015031D01*
X005978Y015092D01*
X006138Y015092D01*
X006285Y015031D01*
X006394Y014922D01*
X006406Y014922D01*
X006385Y014951D01*
X006352Y015015D01*
X006329Y015084D01*
X006318Y015156D01*
X006318Y015192D01*
X007058Y015192D01*
X007058Y015192D01*
X006318Y015192D01*
X006318Y015228D01*
X006329Y015300D01*
X006352Y015368D01*
X006385Y015433D01*
X006404Y015460D01*
X005771Y015460D01*
X004560Y014249D01*
X004560Y014104D01*
X004502Y013965D01*
X004395Y013858D01*
X004256Y013800D01*
X004104Y013800D01*
X003965Y013858D01*
X003858Y013965D01*
X003800Y014104D01*
X003800Y014256D01*
X003858Y014395D01*
X003965Y014502D01*
X004104Y014560D01*
X004249Y014560D01*
X005589Y015900D01*
X006419Y015900D01*
X006388Y015931D01*
X006318Y016100D01*
X006318Y016283D01*
X006388Y016452D01*
X006430Y016494D01*
X005463Y017462D01*
X005328Y017597D01*
X005328Y019740D01*
X005272Y019764D01*
X005130Y019906D01*
X005053Y020091D01*
X005051Y020074D01*
X005026Y019998D01*
X004990Y019927D01*
X004943Y019863D01*
X004887Y019807D01*
X004823Y019760D01*
X004752Y019724D01*
X004676Y019699D01*
X004598Y019687D01*
X004558Y019687D01*
X004558Y020192D01*
X004558Y020192D01*
X004558Y020697D01*
X004598Y020697D01*
X004676Y020684D01*
X004752Y020660D01*
X004823Y020624D01*
X004887Y020577D01*
X004943Y020521D01*
X004990Y020456D01*
X005026Y020386D01*
X005051Y020310D01*
X005053Y020293D01*
X005130Y020478D01*
X005272Y020620D01*
X005458Y020697D01*
X005658Y020697D01*
X005844Y020620D01*
X005986Y020478D01*
X006063Y020292D01*
X006063Y020091D01*
X005986Y019906D01*
X005844Y019764D01*
X005788Y019740D01*
X005788Y017787D01*
X006318Y017257D01*
X006318Y017283D01*
X006388Y017452D01*
X006517Y017582D01*
X006686Y017652D01*
X007429Y017652D01*
X007599Y017582D01*
X007689Y017492D01*
X007640Y017609D01*
X007640Y017775D01*
X007689Y017892D01*
X007599Y017802D01*
X007429Y017732D01*
X006686Y017732D01*
X006517Y017802D01*
X006388Y017931D01*
X006318Y018100D01*
X006318Y018283D01*
X006388Y018452D01*
X006517Y018582D01*
X006686Y018652D01*
X007429Y018652D01*
X007599Y018582D01*
X007728Y018452D01*
X007798Y018283D01*
X007798Y018100D01*
X007743Y017968D01*
X007821Y018046D01*
X007828Y018049D01*
X007828Y019637D01*
X007686Y019494D01*
X007728Y019452D01*
X007798Y019283D01*
X007798Y019100D01*
X007728Y018931D01*
X007599Y018802D01*
X007429Y018732D01*
X006686Y018732D01*
X006517Y018802D01*
X006388Y018931D01*
X006318Y019100D01*
X006318Y019283D01*
X006388Y019452D01*
X006517Y019582D01*
X006686Y019652D01*
X007193Y019652D01*
X007273Y019732D01*
X006686Y019732D01*
X006517Y019802D01*
X006388Y019931D01*
X006318Y020100D01*
X006318Y020283D01*
X006388Y020452D01*
X006517Y020582D01*
X006686Y020652D01*
X007429Y020652D01*
X007599Y020582D01*
X007728Y020452D01*
X007798Y020283D01*
X007798Y020257D01*
X009328Y021787D01*
X009430Y021889D01*
X009388Y021931D01*
X009318Y022100D01*
X009318Y022283D01*
X009388Y022452D01*
X009517Y022582D01*
X009686Y022652D01*
X010429Y022652D01*
X010599Y022582D01*
X010728Y022452D01*
X010798Y022283D01*
X010798Y022100D01*
X010728Y021931D01*
X010686Y021889D01*
X011153Y021422D01*
X011623Y021422D01*
X011553Y021591D01*
X011553Y021792D01*
X011576Y021848D01*
X010463Y022962D01*
X008653Y022962D01*
X007798Y022107D01*
X007798Y022100D01*
X007728Y021931D01*
X007599Y021802D01*
X007429Y021732D01*
X006686Y021732D01*
X006517Y021802D01*
X006388Y021931D01*
X006318Y022100D01*
X006318Y022283D01*
X006388Y022452D01*
X006517Y022582D01*
X006686Y022652D01*
X007429Y022652D01*
X007599Y022582D01*
X007611Y022570D01*
X008328Y023287D01*
X008328Y023287D01*
X008463Y023422D01*
X010653Y023422D01*
X011602Y022473D01*
X011553Y022591D01*
X011553Y022774D01*
X011475Y022774D01*
X011321Y022838D01*
X011204Y022955D01*
X011140Y023109D01*
X011140Y023275D01*
X011204Y023428D01*
X011321Y023546D01*
X011475Y023610D01*
X011641Y023610D01*
X011648Y023607D01*
X011828Y023787D01*
X011828Y024962D01*
X001653Y024962D01*
X001473Y024782D01*
X001476Y024775D01*
X001476Y024609D01*
X001412Y024455D01*
X001295Y024338D01*
X001141Y024274D01*
X000975Y024274D01*
X000821Y024338D01*
X000704Y024455D01*
X000640Y024609D01*
X000640Y024775D01*
X000704Y024928D01*
X000821Y025046D01*
X000975Y025110D01*
X001141Y025110D01*
X001148Y025107D01*
X001463Y025422D01*
X012153Y025422D01*
X012288Y025287D01*
X012288Y023597D01*
X012153Y023462D01*
X011973Y023282D01*
X011976Y023275D01*
X011976Y023197D01*
X012158Y023197D01*
X012344Y023120D01*
X012486Y022978D01*
X012563Y022792D01*
X012563Y022591D01*
X012486Y022406D01*
X012344Y022264D01*
X012170Y022192D01*
X012344Y022120D01*
X012486Y021978D01*
X012509Y021922D01*
X012963Y021922D01*
X013963Y022922D01*
X014558Y022922D01*
X014592Y023003D01*
X014746Y023158D01*
X014949Y023242D01*
X015167Y023242D01*
X015370Y023158D01*
X015524Y023003D01*
X015608Y022801D01*
X015608Y022582D01*
X015524Y022380D01*
X015370Y022226D01*
X015288Y022192D01*
X015370Y022158D01*
X015524Y022003D01*
X015608Y021801D01*
X015608Y021582D01*
X015524Y021380D01*
X015370Y021226D01*
X015288Y021192D01*
X015370Y021158D01*
X015524Y021003D01*
X015608Y020801D01*
X015608Y020582D01*
X015524Y020380D01*
X015370Y020226D01*
X015288Y020192D01*
X015370Y020158D01*
X015524Y020003D01*
X015608Y019801D01*
X015608Y019582D01*
X015524Y019380D01*
X015370Y019226D01*
X015288Y019192D01*
X015370Y019158D01*
X015524Y019003D01*
X015608Y018801D01*
X015608Y018582D01*
X015524Y018380D01*
X015370Y018226D01*
X015288Y018192D01*
X015370Y018158D01*
X015524Y018003D01*
X015608Y017801D01*
X015608Y017582D01*
X015524Y017380D01*
X015370Y017226D01*
X015288Y017192D01*
X015370Y017158D01*
X015524Y017003D01*
X015608Y016801D01*
X015608Y016582D01*
X015574Y016501D01*
X016288Y015787D01*
X016288Y010097D01*
X016153Y009962D01*
X015653Y009462D01*
X012153Y009462D01*
X011153Y008462D01*
X008963Y008462D01*
X008752Y008672D02*
X005710Y008672D01*
X005710Y008831D02*
X006489Y008831D01*
X006364Y008989D02*
X005710Y008989D01*
X005710Y009148D02*
X006013Y009148D01*
X005792Y009306D02*
X005710Y009306D01*
X005710Y009465D02*
X005732Y009465D01*
X005738Y009623D02*
X005710Y009623D01*
X005710Y009782D02*
X005819Y009782D01*
X005910Y009940D02*
X005710Y009940D01*
X005812Y010099D02*
X005910Y010099D01*
X005878Y010257D02*
X005946Y010257D01*
X005875Y010416D02*
X006104Y010416D01*
X006263Y010574D02*
X005799Y010574D01*
X006339Y011050D02*
X003910Y011050D01*
X003910Y011208D02*
X006318Y011208D01*
X006352Y011367D02*
X003910Y011367D01*
X003910Y011525D02*
X006461Y011525D01*
X006477Y011842D02*
X003910Y011842D01*
X003910Y011684D02*
X007724Y011684D01*
X007639Y011842D02*
X007883Y011842D01*
X007757Y012001D02*
X008041Y012001D01*
X008200Y012159D02*
X007850Y012159D01*
X008009Y012318D02*
X008328Y012318D01*
X008328Y012476D02*
X008167Y012476D01*
X008288Y012635D02*
X008328Y012635D01*
X008328Y012793D02*
X008288Y012793D01*
X008288Y012952D02*
X008328Y012952D01*
X008328Y013110D02*
X008288Y013110D01*
X008288Y013269D02*
X008328Y013269D01*
X008328Y013427D02*
X008288Y013427D01*
X008288Y013586D02*
X008328Y013586D01*
X008328Y013744D02*
X008288Y013744D01*
X008288Y013903D02*
X008328Y013903D01*
X008328Y014061D02*
X008288Y014061D01*
X008288Y014220D02*
X008328Y014220D01*
X008288Y014378D02*
X008419Y014378D01*
X008288Y014537D02*
X008577Y014537D01*
X008640Y014695D02*
X008386Y014695D01*
X008545Y014854D02*
X008673Y014854D01*
X008703Y015012D02*
X008787Y015012D01*
X008862Y015171D02*
X009318Y015171D01*
X009337Y015329D02*
X009020Y015329D01*
X009329Y015012D02*
X009355Y015012D01*
X009427Y014892D02*
X009517Y014802D01*
X009686Y014732D01*
X010429Y014732D01*
X010599Y014802D01*
X010728Y014931D01*
X010741Y014962D01*
X011153Y014962D01*
X011288Y015097D01*
X011653Y015462D01*
X012463Y015462D01*
X012963Y014962D01*
X013107Y014962D01*
X013130Y014906D01*
X013272Y014764D01*
X013457Y014687D01*
X013440Y014684D01*
X013364Y014660D01*
X013293Y014624D01*
X013229Y014577D01*
X013173Y014521D01*
X013126Y014456D01*
X013090Y014386D01*
X013065Y014310D01*
X013053Y014232D01*
X013053Y014192D01*
X013558Y014192D01*
X014063Y014192D01*
X014063Y014232D01*
X014051Y014310D01*
X014026Y014386D01*
X013990Y014456D01*
X013943Y014521D01*
X013887Y014577D01*
X013823Y014624D01*
X013752Y014660D01*
X013676Y014684D01*
X013659Y014687D01*
X013844Y014764D01*
X013986Y014906D01*
X014063Y015091D01*
X014063Y015292D01*
X013986Y015478D01*
X013844Y015620D01*
X013658Y015697D01*
X013458Y015697D01*
X013272Y015620D01*
X013130Y015478D01*
X013120Y015455D01*
X012788Y015787D01*
X012653Y015922D01*
X012541Y015922D01*
X012608Y016082D01*
X012608Y016301D01*
X012524Y016503D01*
X012370Y016658D01*
X012167Y016742D01*
X011949Y016742D01*
X011922Y016731D01*
X013653Y018462D01*
X014558Y018462D01*
X014592Y018380D01*
X014746Y018226D01*
X014828Y018192D01*
X014746Y018158D01*
X014592Y018003D01*
X014508Y017801D01*
X014508Y017582D01*
X014592Y017380D01*
X014746Y017226D01*
X014828Y017192D01*
X014746Y017158D01*
X014592Y017003D01*
X014508Y016801D01*
X014508Y016582D01*
X014592Y016380D01*
X014746Y016226D01*
X014828Y016192D01*
X014746Y016158D01*
X014592Y016003D01*
X014508Y015801D01*
X014508Y015582D01*
X014592Y015380D01*
X014746Y015226D01*
X014828Y015192D01*
X014746Y015158D01*
X014592Y015003D01*
X014508Y014801D01*
X014508Y014582D01*
X014592Y014380D01*
X014746Y014226D01*
X014828Y014192D01*
X014746Y014158D01*
X014592Y014003D01*
X014558Y013922D01*
X014397Y013922D01*
X013235Y012760D01*
X010815Y012760D01*
X010686Y012889D01*
X010728Y012931D01*
X010798Y013100D01*
X010798Y013283D01*
X010728Y013452D01*
X010599Y013582D01*
X010429Y013652D01*
X009686Y013652D01*
X009517Y013582D01*
X009388Y013452D01*
X009318Y013283D01*
X009318Y013100D01*
X009388Y012931D01*
X009504Y012815D01*
X008788Y012099D01*
X008788Y014097D01*
X008968Y014277D01*
X008975Y014274D01*
X009141Y014274D01*
X009295Y014338D01*
X009373Y014416D01*
X009318Y014283D01*
X009318Y014100D01*
X009388Y013931D01*
X009517Y013802D01*
X009686Y013732D01*
X010429Y013732D01*
X010599Y013802D01*
X010728Y013931D01*
X010798Y014100D01*
X010798Y014283D01*
X010728Y014452D01*
X010599Y014582D01*
X010429Y014652D01*
X009686Y014652D01*
X009517Y014582D01*
X009427Y014492D01*
X009476Y014609D01*
X009476Y014775D01*
X009427Y014892D01*
X009443Y014854D02*
X009466Y014854D01*
X009476Y014695D02*
X013438Y014695D01*
X013188Y014537D02*
X010644Y014537D01*
X010759Y014378D02*
X013087Y014378D01*
X013053Y014220D02*
X010798Y014220D01*
X010782Y014061D02*
X013069Y014061D01*
X013065Y014074D02*
X013090Y013998D01*
X013126Y013927D01*
X013173Y013863D01*
X013229Y013807D01*
X013293Y013760D01*
X013364Y013724D01*
X013440Y013699D01*
X013518Y013687D01*
X013558Y013687D01*
X013598Y013687D01*
X013676Y013699D01*
X013752Y013724D01*
X013823Y013760D01*
X013887Y013807D01*
X013943Y013863D01*
X013990Y013927D01*
X014026Y013998D01*
X014051Y014074D01*
X014063Y014152D01*
X014063Y014192D01*
X013558Y014192D01*
X013558Y014192D01*
X013558Y014192D01*
X013053Y014192D01*
X013053Y014152D01*
X013065Y014074D01*
X013144Y013903D02*
X010699Y013903D01*
X010459Y013744D02*
X013324Y013744D01*
X013558Y013744D02*
X013558Y013744D01*
X013558Y013687D02*
X013558Y014192D01*
X013558Y014192D01*
X013558Y013687D01*
X013558Y013903D02*
X013558Y013903D01*
X013558Y014061D02*
X013558Y014061D01*
X013791Y013744D02*
X014219Y013744D01*
X014377Y013903D02*
X013972Y013903D01*
X014046Y014061D02*
X014649Y014061D01*
X014761Y014220D02*
X014063Y014220D01*
X014028Y014378D02*
X014594Y014378D01*
X014527Y014537D02*
X013927Y014537D01*
X013678Y014695D02*
X014508Y014695D01*
X014530Y014854D02*
X013934Y014854D01*
X014030Y015012D02*
X014600Y015012D01*
X014776Y015171D02*
X014063Y015171D01*
X014048Y015329D02*
X014643Y015329D01*
X014547Y015488D02*
X013976Y015488D01*
X013781Y015646D02*
X014508Y015646D01*
X014509Y015805D02*
X012771Y015805D01*
X012929Y015646D02*
X013335Y015646D01*
X013139Y015488D02*
X013088Y015488D01*
X012754Y015171D02*
X011362Y015171D01*
X011520Y015329D02*
X012595Y015329D01*
X012912Y015012D02*
X011203Y015012D01*
X010650Y014854D02*
X013182Y014854D01*
X012559Y015963D02*
X014575Y015963D01*
X014710Y016122D02*
X012608Y016122D01*
X012608Y016280D02*
X014692Y016280D01*
X014568Y016439D02*
X012551Y016439D01*
X012431Y016597D02*
X014508Y016597D01*
X014508Y016756D02*
X011947Y016756D01*
X012105Y016914D02*
X014555Y016914D01*
X014661Y017073D02*
X012264Y017073D01*
X012422Y017231D02*
X014741Y017231D01*
X014588Y017390D02*
X012581Y017390D01*
X012739Y017548D02*
X014522Y017548D01*
X014508Y017707D02*
X012898Y017707D01*
X013056Y017865D02*
X014534Y017865D01*
X014612Y018024D02*
X013215Y018024D01*
X013373Y018182D02*
X014804Y018182D01*
X014631Y018341D02*
X013532Y018341D01*
X013198Y018658D02*
X012849Y018658D01*
X013007Y018816D02*
X013357Y018816D01*
X013328Y018787D02*
X010794Y016253D01*
X010787Y016300D01*
X010764Y016368D01*
X010731Y016433D01*
X010689Y016491D01*
X010638Y016543D01*
X010579Y016585D01*
X010515Y016618D01*
X010446Y016640D01*
X010374Y016652D01*
X010058Y016652D01*
X010058Y016192D01*
X010058Y016192D01*
X010058Y016652D01*
X009742Y016652D01*
X009670Y016640D01*
X009601Y016618D01*
X009537Y016585D01*
X009478Y016543D01*
X009427Y016491D01*
X009385Y016433D01*
X009352Y016368D01*
X009329Y016300D01*
X009318Y016228D01*
X009318Y016192D01*
X010058Y016192D01*
X010058Y016192D01*
X009318Y016192D01*
X009318Y016156D01*
X009329Y016084D01*
X009352Y016015D01*
X009385Y015951D01*
X009406Y015922D01*
X008963Y015922D01*
X008915Y015874D01*
X008897Y015918D01*
X008813Y016002D01*
X008900Y016089D01*
X009585Y016774D01*
X009686Y016732D01*
X010429Y016732D01*
X010599Y016802D01*
X010728Y016931D01*
X010798Y017100D01*
X010798Y017283D01*
X010728Y017452D01*
X010718Y017462D01*
X011653Y017462D01*
X011788Y017597D01*
X013153Y018962D01*
X014153Y018962D01*
X014288Y019097D01*
X014586Y019394D01*
X014592Y019380D01*
X014746Y019226D01*
X014828Y019192D01*
X014746Y019158D01*
X014592Y019003D01*
X014558Y018922D01*
X013463Y018922D01*
X013328Y018787D01*
X013040Y018499D02*
X012690Y018499D01*
X012532Y018341D02*
X012881Y018341D01*
X012723Y018182D02*
X012373Y018182D01*
X012215Y018024D02*
X012564Y018024D01*
X012406Y017865D02*
X012056Y017865D01*
X011898Y017707D02*
X012247Y017707D01*
X012089Y017548D02*
X011739Y017548D01*
X011930Y017390D02*
X010754Y017390D01*
X010798Y017231D02*
X011772Y017231D01*
X011613Y017073D02*
X010786Y017073D01*
X010711Y016914D02*
X011455Y016914D01*
X011296Y016756D02*
X010487Y016756D01*
X010556Y016597D02*
X011138Y016597D01*
X010979Y016439D02*
X010727Y016439D01*
X010790Y016280D02*
X010821Y016280D01*
X010058Y016280D02*
X010058Y016280D01*
X010058Y016439D02*
X010058Y016439D01*
X010058Y016597D02*
X010058Y016597D01*
X009629Y016756D02*
X009567Y016756D01*
X009560Y016597D02*
X009408Y016597D01*
X009389Y016439D02*
X009250Y016439D01*
X009326Y016280D02*
X009091Y016280D01*
X008933Y016122D02*
X009323Y016122D01*
X009378Y015963D02*
X008852Y015963D01*
X009446Y014537D02*
X009472Y014537D01*
X009357Y014378D02*
X009335Y014378D01*
X009318Y014220D02*
X008911Y014220D01*
X008788Y014061D02*
X009334Y014061D01*
X009417Y013903D02*
X008788Y013903D01*
X008788Y013744D02*
X009657Y013744D01*
X009526Y013586D02*
X008788Y013586D01*
X008788Y013427D02*
X009377Y013427D01*
X009318Y013269D02*
X008788Y013269D01*
X008788Y013110D02*
X009318Y013110D01*
X009380Y012952D02*
X008788Y012952D01*
X008788Y012793D02*
X009482Y012793D01*
X009323Y012635D02*
X008788Y012635D01*
X008788Y012476D02*
X009165Y012476D01*
X009006Y012318D02*
X008788Y012318D01*
X008788Y012159D02*
X008848Y012159D01*
X007828Y012793D02*
X007577Y012793D01*
X007599Y012802D02*
X007429Y012732D01*
X006686Y012732D01*
X006517Y012802D01*
X006388Y012931D01*
X006318Y013100D01*
X006318Y013283D01*
X006388Y013452D01*
X006517Y013582D01*
X006686Y013652D01*
X007429Y013652D01*
X007599Y013582D01*
X007728Y013452D01*
X007798Y013283D01*
X007798Y013100D01*
X007728Y012931D01*
X007599Y012802D01*
X007675Y012635D02*
X007471Y012635D01*
X007736Y012952D02*
X007828Y012952D01*
X007828Y013110D02*
X007798Y013110D01*
X007798Y013269D02*
X007828Y013269D01*
X007828Y013427D02*
X007738Y013427D01*
X007828Y013586D02*
X007589Y013586D01*
X007459Y013744D02*
X007828Y013744D01*
X007828Y013903D02*
X007699Y013903D01*
X007782Y014061D02*
X007828Y014061D01*
X007828Y014220D02*
X007798Y014220D01*
X007828Y014378D02*
X007759Y014378D01*
X007728Y014537D02*
X007828Y014537D01*
X006657Y013744D02*
X003588Y013744D01*
X003588Y013586D02*
X006526Y013586D01*
X006377Y013427D02*
X003588Y013427D01*
X003588Y013269D02*
X006318Y013269D01*
X006318Y013110D02*
X003588Y013110D01*
X003624Y012952D02*
X006380Y012952D01*
X006539Y012793D02*
X003782Y012793D01*
X003910Y012635D02*
X006645Y012635D01*
X006412Y012476D02*
X003910Y012476D01*
X003910Y012318D02*
X006332Y012318D01*
X006318Y012159D02*
X003910Y012159D01*
X003910Y012001D02*
X006359Y012001D01*
X006428Y010891D02*
X003910Y010891D01*
X003910Y010733D02*
X006421Y010733D01*
X006384Y009940D02*
X006350Y009940D01*
X006441Y009782D02*
X006566Y009782D01*
X006522Y009623D02*
X006617Y009623D01*
X006318Y009148D02*
X006247Y009148D01*
X005250Y009148D02*
X003910Y009148D01*
X003910Y009306D02*
X005250Y009306D01*
X005250Y009465D02*
X003910Y009465D01*
X003910Y009623D02*
X005250Y009623D01*
X005250Y009782D02*
X003910Y009782D01*
X003910Y009940D02*
X005250Y009940D01*
X005148Y010099D02*
X003910Y010099D01*
X003910Y010257D02*
X005082Y010257D01*
X005085Y010416D02*
X003910Y010416D01*
X003910Y010574D02*
X005161Y010574D01*
X005250Y008989D02*
X003910Y008989D01*
X003910Y008831D02*
X005250Y008831D01*
X005250Y008672D02*
X003910Y008672D01*
X003910Y008514D02*
X005250Y008514D01*
X005250Y008355D02*
X003910Y008355D01*
X003910Y008197D02*
X005250Y008197D01*
X005250Y008038D02*
X003910Y008038D01*
X003910Y007880D02*
X005250Y007880D01*
X005250Y007721D02*
X003910Y007721D01*
X003910Y007563D02*
X005313Y007563D01*
X005472Y007404D02*
X003910Y007404D01*
X003910Y007246D02*
X005554Y007246D01*
X005554Y007087D02*
X003910Y007087D01*
X003910Y006929D02*
X005554Y006929D01*
X005554Y006770D02*
X003910Y006770D01*
X003910Y006612D02*
X013231Y006612D01*
X013231Y006453D02*
X003910Y006453D01*
X003910Y006295D02*
X013231Y006295D01*
X013231Y006136D02*
X003910Y006136D01*
X003910Y005978D02*
X013231Y005978D01*
X013231Y005027D02*
X003910Y005027D01*
X003910Y005185D02*
X014265Y005185D01*
X015175Y005185D02*
X015315Y005185D01*
X015315Y005027D02*
X015175Y005027D01*
X015175Y004868D02*
X015315Y004868D01*
X015315Y005502D02*
X015175Y005502D01*
X015175Y005661D02*
X015315Y005661D01*
X015315Y006796D02*
X016068Y006796D01*
X016114Y006808D01*
X016155Y006832D01*
X016189Y006865D01*
X016212Y006906D01*
X016225Y006952D01*
X016225Y007206D01*
X015315Y007206D01*
X015315Y006796D01*
X015315Y006929D02*
X015175Y006929D01*
X015175Y007087D02*
X015315Y007087D01*
X015315Y007246D02*
X016420Y007246D01*
X016420Y007404D02*
X016225Y007404D01*
X016225Y007563D02*
X016420Y007563D01*
X016420Y007721D02*
X016153Y007721D01*
X016225Y007087D02*
X016420Y007087D01*
X016420Y006929D02*
X016218Y006929D01*
X015315Y007404D02*
X015175Y007404D01*
X015175Y007563D02*
X015315Y007563D01*
X015315Y007721D02*
X015175Y007721D01*
X015656Y009465D02*
X016420Y009465D01*
X016420Y009623D02*
X015814Y009623D01*
X015973Y009782D02*
X016420Y009782D01*
X016420Y009940D02*
X016131Y009940D01*
X016288Y010099D02*
X016420Y010099D01*
X016420Y010257D02*
X016288Y010257D01*
X016288Y010416D02*
X016420Y010416D01*
X016420Y010574D02*
X016288Y010574D01*
X016288Y010733D02*
X016420Y010733D01*
X016420Y010891D02*
X016288Y010891D01*
X016288Y011050D02*
X016420Y011050D01*
X016420Y011208D02*
X016288Y011208D01*
X016288Y011367D02*
X016420Y011367D01*
X016420Y011525D02*
X016288Y011525D01*
X016288Y011684D02*
X016420Y011684D01*
X016420Y011842D02*
X016288Y011842D01*
X016288Y012001D02*
X016420Y012001D01*
X016420Y012159D02*
X016288Y012159D01*
X016288Y012318D02*
X016420Y012318D01*
X016420Y012476D02*
X016288Y012476D01*
X016288Y012635D02*
X016420Y012635D01*
X016420Y012793D02*
X016288Y012793D01*
X016288Y012952D02*
X016420Y012952D01*
X016420Y013110D02*
X016288Y013110D01*
X016288Y013269D02*
X016420Y013269D01*
X016420Y013427D02*
X016288Y013427D01*
X016288Y013586D02*
X016420Y013586D01*
X016420Y013744D02*
X016288Y013744D01*
X016288Y013903D02*
X016420Y013903D01*
X016420Y014061D02*
X016288Y014061D01*
X016288Y014220D02*
X016420Y014220D01*
X016420Y014378D02*
X016288Y014378D01*
X016288Y014537D02*
X016420Y014537D01*
X016420Y014695D02*
X016288Y014695D01*
X016288Y014854D02*
X016420Y014854D01*
X016420Y015012D02*
X016288Y015012D01*
X016288Y015171D02*
X016420Y015171D01*
X016420Y015329D02*
X016288Y015329D01*
X016288Y015488D02*
X016420Y015488D01*
X016420Y015646D02*
X016288Y015646D01*
X016271Y015805D02*
X016420Y015805D01*
X016420Y015963D02*
X016112Y015963D01*
X015954Y016122D02*
X016420Y016122D01*
X016420Y016280D02*
X015795Y016280D01*
X015637Y016439D02*
X016420Y016439D01*
X016420Y016597D02*
X015608Y016597D01*
X015608Y016756D02*
X016420Y016756D01*
X016420Y016914D02*
X015561Y016914D01*
X015455Y017073D02*
X016420Y017073D01*
X016420Y017231D02*
X015375Y017231D01*
X015528Y017390D02*
X016420Y017390D01*
X016420Y017548D02*
X015594Y017548D01*
X015608Y017707D02*
X016420Y017707D01*
X016420Y017865D02*
X015582Y017865D01*
X015504Y018024D02*
X016420Y018024D01*
X016420Y018182D02*
X015312Y018182D01*
X015484Y018341D02*
X016420Y018341D01*
X016420Y018499D02*
X015573Y018499D01*
X015608Y018658D02*
X016420Y018658D01*
X016420Y018816D02*
X015602Y018816D01*
X015536Y018975D02*
X016420Y018975D01*
X016420Y019133D02*
X015395Y019133D01*
X015435Y019292D02*
X016420Y019292D01*
X016420Y019450D02*
X015553Y019450D01*
X015608Y019609D02*
X016420Y019609D01*
X016420Y019767D02*
X015608Y019767D01*
X015556Y019926D02*
X016420Y019926D01*
X016420Y020084D02*
X015444Y020084D01*
X015386Y020243D02*
X016420Y020243D01*
X016420Y020401D02*
X015533Y020401D01*
X015598Y020560D02*
X016420Y020560D01*
X016420Y020718D02*
X015608Y020718D01*
X015577Y020877D02*
X016420Y020877D01*
X016420Y021035D02*
X015493Y021035D01*
X015292Y021194D02*
X016420Y021194D01*
X016420Y021352D02*
X015496Y021352D01*
X015578Y021511D02*
X016420Y021511D01*
X016420Y021669D02*
X015608Y021669D01*
X015597Y021828D02*
X016420Y021828D01*
X016420Y021986D02*
X015531Y021986D01*
X015383Y022145D02*
X016420Y022145D01*
X016420Y022303D02*
X015447Y022303D01*
X015558Y022462D02*
X016420Y022462D01*
X016420Y022620D02*
X015608Y022620D01*
X015608Y022779D02*
X016420Y022779D01*
X016420Y022937D02*
X015552Y022937D01*
X015432Y023096D02*
X016420Y023096D01*
X016420Y023254D02*
X011976Y023254D01*
X012104Y023413D02*
X016420Y023413D01*
X016420Y023571D02*
X012262Y023571D01*
X012288Y023730D02*
X016420Y023730D01*
X016420Y023888D02*
X012288Y023888D01*
X012288Y024047D02*
X016420Y024047D01*
X016420Y024205D02*
X012288Y024205D01*
X012288Y024364D02*
X016420Y024364D01*
X016420Y024522D02*
X012288Y024522D01*
X012288Y024681D02*
X016420Y024681D01*
X016420Y024839D02*
X012288Y024839D01*
X012288Y024998D02*
X016420Y024998D01*
X016420Y025156D02*
X012288Y025156D01*
X012260Y025315D02*
X016420Y025315D01*
X016420Y025473D02*
X000440Y025473D01*
X000440Y025315D02*
X001355Y025315D01*
X001197Y025156D02*
X000440Y025156D01*
X000440Y024998D02*
X000773Y024998D01*
X000667Y024839D02*
X000440Y024839D01*
X000440Y024681D02*
X000640Y024681D01*
X000676Y024522D02*
X000440Y024522D01*
X000440Y024364D02*
X000795Y024364D01*
X000440Y024205D02*
X006038Y024205D01*
X006038Y024212D02*
X006038Y024172D01*
X005508Y024172D01*
X005508Y024149D01*
X005521Y024063D01*
X005548Y023981D01*
X005588Y023904D01*
X005638Y023834D01*
X005700Y023772D01*
X005770Y023721D01*
X005847Y023682D01*
X005929Y023655D01*
X006015Y023642D01*
X006038Y023642D01*
X006038Y024172D01*
X006078Y024172D01*
X006078Y023642D01*
X006101Y023642D01*
X006187Y023655D01*
X006269Y023682D01*
X006346Y023721D01*
X006416Y023772D01*
X006477Y023834D01*
X006528Y023904D01*
X006558Y023962D01*
X006592Y023880D01*
X006746Y023726D01*
X006949Y023642D01*
X007167Y023642D01*
X007370Y023726D01*
X007524Y023880D01*
X007558Y023962D01*
X007592Y023880D01*
X007746Y023726D01*
X007949Y023642D01*
X008167Y023642D01*
X008370Y023726D01*
X008524Y023880D01*
X008558Y023962D01*
X008592Y023880D01*
X008746Y023726D01*
X008949Y023642D01*
X009167Y023642D01*
X009370Y023726D01*
X009524Y023880D01*
X009558Y023962D01*
X009592Y023880D01*
X009746Y023726D01*
X009949Y023642D01*
X010167Y023642D01*
X010370Y023726D01*
X010524Y023880D01*
X010558Y023962D01*
X010592Y023880D01*
X010746Y023726D01*
X010949Y023642D01*
X011167Y023642D01*
X011370Y023726D01*
X011524Y023880D01*
X011608Y024082D01*
X011608Y024301D01*
X011524Y024503D01*
X011370Y024658D01*
X011167Y024742D01*
X010949Y024742D01*
X010746Y024658D01*
X010592Y024503D01*
X010558Y024422D01*
X010524Y024503D01*
X010370Y024658D01*
X010167Y024742D01*
X009949Y024742D01*
X009746Y024658D01*
X009592Y024503D01*
X009558Y024422D01*
X009524Y024503D01*
X009370Y024658D01*
X009167Y024742D01*
X008949Y024742D01*
X008746Y024658D01*
X008592Y024503D01*
X008558Y024422D01*
X008524Y024503D01*
X008370Y024658D01*
X008167Y024742D01*
X007949Y024742D01*
X007746Y024658D01*
X007592Y024503D01*
X007558Y024422D01*
X007524Y024503D01*
X007370Y024658D01*
X007167Y024742D01*
X006949Y024742D01*
X006746Y024658D01*
X006592Y024503D01*
X006558Y024422D01*
X006528Y024480D01*
X006477Y024550D01*
X006416Y024611D01*
X006346Y024662D01*
X006269Y024702D01*
X006187Y024728D01*
X006101Y024742D01*
X006078Y024742D01*
X006078Y024212D01*
X006038Y024212D01*
X006038Y024742D01*
X006015Y024742D01*
X005929Y024728D01*
X005847Y024702D01*
X005770Y024662D01*
X005700Y024611D01*
X005638Y024550D01*
X005588Y024480D01*
X005548Y024403D01*
X005521Y024321D01*
X005508Y024235D01*
X005508Y024212D01*
X006038Y024212D01*
X006038Y024364D02*
X006078Y024364D01*
X006078Y024522D02*
X006038Y024522D01*
X006038Y024681D02*
X006078Y024681D01*
X006310Y024681D02*
X006801Y024681D01*
X006610Y024522D02*
X006498Y024522D01*
X006078Y024047D02*
X006038Y024047D01*
X006038Y023888D02*
X006078Y023888D01*
X006078Y023730D02*
X006038Y023730D01*
X005759Y023730D02*
X005063Y023730D01*
X005063Y023792D02*
X004986Y023978D01*
X004844Y024120D01*
X004658Y024197D01*
X004458Y024197D01*
X004272Y024120D01*
X004130Y023978D01*
X004053Y023793D01*
X004051Y023810D01*
X004026Y023886D01*
X003990Y023956D01*
X003943Y024021D01*
X003887Y024077D01*
X003823Y024124D01*
X003752Y024160D01*
X003676Y024184D01*
X003598Y024197D01*
X003558Y024197D01*
X003558Y023692D01*
X003558Y023692D01*
X003558Y024197D01*
X003518Y024197D01*
X003440Y024184D01*
X003364Y024160D01*
X003293Y024124D01*
X003229Y024077D01*
X003173Y024021D01*
X003126Y023956D01*
X003090Y023886D01*
X003065Y023810D01*
X003053Y023732D01*
X003053Y023692D01*
X003558Y023692D01*
X003558Y023692D01*
X003053Y023692D01*
X003053Y023652D01*
X003065Y023574D01*
X003090Y023498D01*
X003103Y023472D01*
X002788Y023787D01*
X002653Y023922D01*
X000963Y023922D01*
X000828Y023787D01*
X000828Y019597D01*
X001542Y018883D01*
X001508Y018801D01*
X001508Y018582D01*
X001592Y018380D01*
X001746Y018226D01*
X001828Y018192D01*
X001746Y018158D01*
X001592Y018003D01*
X001508Y017801D01*
X001508Y017582D01*
X001592Y017380D01*
X001746Y017226D01*
X001828Y017192D01*
X001746Y017158D01*
X001592Y017003D01*
X001508Y016801D01*
X001508Y016582D01*
X001592Y016380D01*
X001746Y016226D01*
X001828Y016192D01*
X001746Y016158D01*
X001592Y016003D01*
X001508Y015801D01*
X001508Y015582D01*
X001592Y015380D01*
X001746Y015226D01*
X001828Y015192D01*
X001746Y015158D01*
X001592Y015003D01*
X001508Y014801D01*
X001508Y014582D01*
X001592Y014380D01*
X001746Y014226D01*
X001828Y014192D01*
X001746Y014158D01*
X001592Y014003D01*
X001508Y013801D01*
X001508Y013582D01*
X001592Y013380D01*
X001746Y013226D01*
X001828Y013192D01*
X001746Y013158D01*
X001592Y013003D01*
X001508Y012801D01*
X001508Y012582D01*
X001592Y012380D01*
X001746Y012226D01*
X001949Y012142D01*
X002167Y012142D01*
X002370Y012226D01*
X002524Y012380D01*
X002608Y012582D01*
X002608Y012801D01*
X002524Y013003D01*
X002370Y013158D01*
X002288Y013192D01*
X002370Y013226D01*
X002524Y013380D01*
X002608Y013582D01*
X002608Y013801D01*
X002524Y014003D01*
X002370Y014158D01*
X002288Y014192D01*
X002370Y014226D01*
X002524Y014380D01*
X002608Y014582D01*
X002608Y014801D01*
X002524Y015003D01*
X002370Y015158D01*
X002288Y015192D01*
X002370Y015226D01*
X002524Y015380D01*
X002608Y015582D01*
X002608Y015801D01*
X002524Y016003D01*
X002370Y016158D01*
X002288Y016192D01*
X002370Y016226D01*
X002524Y016380D01*
X002608Y016582D01*
X002608Y016801D01*
X002524Y017003D01*
X002370Y017158D01*
X002288Y017192D01*
X002370Y017226D01*
X002524Y017380D01*
X002608Y017582D01*
X002608Y017801D01*
X002524Y018003D01*
X002370Y018158D01*
X002288Y018192D01*
X002370Y018226D01*
X002524Y018380D01*
X002608Y018582D01*
X002608Y018801D01*
X002524Y019003D01*
X002370Y019158D01*
X002288Y019192D01*
X002370Y019226D01*
X002524Y019380D01*
X002608Y019582D01*
X002608Y019801D01*
X002524Y020003D01*
X002370Y020158D01*
X002288Y020192D01*
X002370Y020226D01*
X002524Y020380D01*
X002608Y020582D01*
X002608Y020801D01*
X002524Y021003D01*
X002370Y021158D01*
X002288Y021192D01*
X002370Y021226D01*
X002524Y021380D01*
X002608Y021582D01*
X002608Y021801D01*
X002524Y022003D01*
X002370Y022158D01*
X002288Y022192D01*
X002346Y022221D01*
X002416Y022272D01*
X002477Y022334D01*
X002528Y022404D01*
X002568Y022481D01*
X002594Y022563D01*
X002608Y022649D01*
X002608Y022672D01*
X002078Y022672D01*
X002078Y022712D01*
X002038Y022712D01*
X002038Y023242D01*
X002015Y023242D01*
X001929Y023228D01*
X001847Y023202D01*
X001770Y023162D01*
X001700Y023111D01*
X001638Y023050D01*
X001588Y022980D01*
X001548Y022903D01*
X001521Y022821D01*
X001508Y022735D01*
X001508Y022712D01*
X002038Y022712D01*
X002038Y022672D01*
X001508Y022672D01*
X001508Y022649D01*
X001521Y022563D01*
X001548Y022481D01*
X001588Y022404D01*
X001638Y022334D01*
X001700Y022272D01*
X001770Y022221D01*
X001828Y022192D01*
X001746Y022158D01*
X001592Y022003D01*
X001508Y021801D01*
X001508Y021582D01*
X001592Y021380D01*
X001746Y021226D01*
X001828Y021192D01*
X001746Y021158D01*
X001592Y021003D01*
X001508Y020801D01*
X001508Y020582D01*
X001592Y020380D01*
X001746Y020226D01*
X001828Y020192D01*
X001746Y020158D01*
X001592Y020003D01*
X001508Y019801D01*
X001508Y019582D01*
X001519Y019556D01*
X001288Y019787D01*
X001288Y023462D01*
X002463Y023462D01*
X003463Y022462D01*
X005828Y022462D01*
X005828Y021597D01*
X005963Y021462D01*
X006318Y021107D01*
X006318Y021100D01*
X006388Y020931D01*
X006517Y020802D01*
X006686Y020732D01*
X007429Y020732D01*
X007599Y020802D01*
X007728Y020931D01*
X007798Y021100D01*
X007798Y021283D01*
X007728Y021452D01*
X007599Y021582D01*
X007429Y021652D01*
X006686Y021652D01*
X006517Y021582D01*
X006505Y021570D01*
X006288Y021787D01*
X006288Y022787D01*
X006153Y022922D01*
X003653Y022922D01*
X003338Y023237D01*
X003364Y023224D01*
X003440Y023199D01*
X003518Y023187D01*
X003558Y023187D01*
X003598Y023187D01*
X003676Y023199D01*
X003752Y023224D01*
X003823Y023260D01*
X003887Y023307D01*
X003943Y023363D01*
X003990Y023427D01*
X004026Y023498D01*
X004051Y023574D01*
X004053Y023591D01*
X004130Y023406D01*
X004272Y023264D01*
X004458Y023187D01*
X004658Y023187D01*
X004844Y023264D01*
X004986Y023406D01*
X005063Y023591D01*
X005063Y023792D01*
X005023Y023888D02*
X005599Y023888D01*
X005527Y024047D02*
X004917Y024047D01*
X005055Y023571D02*
X011382Y023571D01*
X011373Y023730D02*
X011770Y023730D01*
X011828Y023888D02*
X011527Y023888D01*
X011593Y024047D02*
X011828Y024047D01*
X011828Y024205D02*
X011608Y024205D01*
X011582Y024364D02*
X011828Y024364D01*
X011828Y024522D02*
X011506Y024522D01*
X011315Y024681D02*
X011828Y024681D01*
X011828Y024839D02*
X001530Y024839D01*
X001476Y024681D02*
X005806Y024681D01*
X005618Y024522D02*
X001440Y024522D01*
X001321Y024364D02*
X005535Y024364D01*
X004989Y023413D02*
X008453Y023413D01*
X008295Y023254D02*
X004821Y023254D01*
X004295Y023254D02*
X003811Y023254D01*
X003979Y023413D02*
X004127Y023413D01*
X004061Y023571D02*
X004050Y023571D01*
X004025Y023888D02*
X004093Y023888D01*
X004199Y024047D02*
X003917Y024047D01*
X003558Y024047D02*
X003558Y024047D01*
X003558Y023888D02*
X003558Y023888D01*
X003558Y023730D02*
X003558Y023730D01*
X003558Y023692D02*
X003558Y023187D01*
X003558Y023692D01*
X003558Y023692D01*
X003558Y023571D02*
X003558Y023571D01*
X003558Y023413D02*
X003558Y023413D01*
X003558Y023254D02*
X003558Y023254D01*
X003479Y023096D02*
X008136Y023096D01*
X007978Y022937D02*
X003638Y022937D01*
X003304Y022620D02*
X002603Y022620D01*
X002608Y022712D02*
X002608Y022735D01*
X002594Y022821D01*
X002568Y022903D01*
X002528Y022980D01*
X002477Y023050D01*
X002416Y023111D01*
X002346Y023162D01*
X002269Y023202D01*
X002187Y023228D01*
X002101Y023242D01*
X002078Y023242D01*
X002078Y022712D01*
X002608Y022712D01*
X002601Y022779D02*
X003146Y022779D01*
X002987Y022937D02*
X002550Y022937D01*
X002432Y023096D02*
X002829Y023096D01*
X002670Y023254D02*
X001288Y023254D01*
X001288Y023096D02*
X001684Y023096D01*
X001566Y022937D02*
X001288Y022937D01*
X001288Y022779D02*
X001515Y022779D01*
X001512Y022620D02*
X001288Y022620D01*
X001288Y022462D02*
X001558Y022462D01*
X001669Y022303D02*
X001288Y022303D01*
X001288Y022145D02*
X001733Y022145D01*
X001585Y021986D02*
X001288Y021986D01*
X001288Y021828D02*
X001519Y021828D01*
X001508Y021669D02*
X001288Y021669D01*
X001288Y021511D02*
X001538Y021511D01*
X001620Y021352D02*
X001288Y021352D01*
X001288Y021194D02*
X001824Y021194D01*
X001623Y021035D02*
X001288Y021035D01*
X001288Y020877D02*
X001539Y020877D01*
X001508Y020718D02*
X001288Y020718D01*
X001288Y020560D02*
X001517Y020560D01*
X001583Y020401D02*
X001288Y020401D01*
X001288Y020243D02*
X001729Y020243D01*
X001672Y020084D02*
X001288Y020084D01*
X001288Y019926D02*
X001559Y019926D01*
X001508Y019767D02*
X001308Y019767D01*
X001467Y019609D02*
X001508Y019609D01*
X001133Y019292D02*
X000440Y019292D01*
X000440Y019450D02*
X000974Y019450D01*
X000828Y019609D02*
X000440Y019609D01*
X000440Y019767D02*
X000828Y019767D01*
X000828Y019926D02*
X000440Y019926D01*
X000440Y020084D02*
X000828Y020084D01*
X000828Y020243D02*
X000440Y020243D01*
X000440Y020401D02*
X000828Y020401D01*
X000828Y020560D02*
X000440Y020560D01*
X000440Y020718D02*
X000828Y020718D01*
X000828Y020877D02*
X000440Y020877D01*
X000440Y021035D02*
X000828Y021035D01*
X000828Y021194D02*
X000440Y021194D01*
X000440Y021352D02*
X000828Y021352D01*
X000828Y021511D02*
X000440Y021511D01*
X000440Y021669D02*
X000828Y021669D01*
X000828Y021828D02*
X000440Y021828D01*
X000440Y021986D02*
X000828Y021986D01*
X000828Y022145D02*
X000440Y022145D01*
X000440Y022303D02*
X000828Y022303D01*
X000828Y022462D02*
X000440Y022462D01*
X000440Y022620D02*
X000828Y022620D01*
X000828Y022779D02*
X000440Y022779D01*
X000440Y022937D02*
X000828Y022937D01*
X000828Y023096D02*
X000440Y023096D01*
X000440Y023254D02*
X000828Y023254D01*
X000828Y023413D02*
X000440Y023413D01*
X000440Y023571D02*
X000828Y023571D01*
X000828Y023730D02*
X000440Y023730D01*
X000440Y023888D02*
X000929Y023888D01*
X001288Y023413D02*
X002512Y023413D01*
X002845Y023730D02*
X003053Y023730D01*
X003066Y023571D02*
X003004Y023571D01*
X003091Y023888D02*
X002687Y023888D01*
X003199Y024047D02*
X000440Y024047D01*
X000440Y025632D02*
X016420Y025632D01*
X016420Y025790D02*
X000440Y025790D01*
X002038Y023096D02*
X002078Y023096D01*
X002078Y022937D02*
X002038Y022937D01*
X002038Y022779D02*
X002078Y022779D01*
X002447Y022303D02*
X005828Y022303D01*
X005828Y022145D02*
X003782Y022145D01*
X003752Y022160D02*
X003676Y022184D01*
X003598Y022197D01*
X003558Y022197D01*
X003558Y021692D01*
X003558Y021692D01*
X003558Y022197D01*
X003518Y022197D01*
X003440Y022184D01*
X003364Y022160D01*
X003293Y022124D01*
X003229Y022077D01*
X003173Y022021D01*
X003126Y021956D01*
X003090Y021886D01*
X003065Y021810D01*
X003053Y021732D01*
X003053Y021692D01*
X003558Y021692D01*
X004063Y021692D01*
X004063Y021732D01*
X004051Y021810D01*
X004026Y021886D01*
X003990Y021956D01*
X003943Y022021D01*
X003887Y022077D01*
X003823Y022124D01*
X003752Y022160D01*
X003558Y022145D02*
X003558Y022145D01*
X003558Y021986D02*
X003558Y021986D01*
X003558Y021828D02*
X003558Y021828D01*
X003558Y021692D02*
X003558Y021692D01*
X003558Y021692D01*
X004063Y021692D01*
X004063Y021652D01*
X004051Y021574D01*
X004026Y021498D01*
X003990Y021427D01*
X003943Y021363D01*
X003887Y021307D01*
X003823Y021260D01*
X003752Y021224D01*
X003676Y021199D01*
X003659Y021197D01*
X003844Y021120D01*
X003986Y020978D01*
X004063Y020792D01*
X004063Y020591D01*
X003986Y020406D01*
X003844Y020264D01*
X003658Y020187D01*
X003458Y020187D01*
X003272Y020264D01*
X003130Y020406D01*
X003053Y020591D01*
X003053Y020792D01*
X003130Y020978D01*
X003272Y021120D01*
X003457Y021197D01*
X003440Y021199D01*
X003364Y021224D01*
X003293Y021260D01*
X003229Y021307D01*
X003173Y021363D01*
X003126Y021427D01*
X003090Y021498D01*
X003065Y021574D01*
X003053Y021652D01*
X003053Y021692D01*
X003558Y021692D01*
X003968Y021986D02*
X005828Y021986D01*
X005828Y021828D02*
X004045Y021828D01*
X004063Y021669D02*
X005828Y021669D01*
X005914Y021511D02*
X004030Y021511D01*
X003932Y021352D02*
X006072Y021352D01*
X006231Y021194D02*
X003666Y021194D01*
X003450Y021194D02*
X002292Y021194D01*
X002493Y021035D02*
X003187Y021035D01*
X003088Y020877D02*
X002577Y020877D01*
X002608Y020718D02*
X003053Y020718D01*
X003066Y020560D02*
X002598Y020560D01*
X002533Y020401D02*
X003135Y020401D01*
X003323Y020243D02*
X002386Y020243D01*
X002444Y020084D02*
X004064Y020084D01*
X004065Y020074D02*
X004090Y019998D01*
X004126Y019927D01*
X004173Y019863D01*
X004229Y019807D01*
X004293Y019760D01*
X004364Y019724D01*
X004440Y019699D01*
X004518Y019687D01*
X004558Y019687D01*
X004558Y020192D01*
X004558Y020697D01*
X004518Y020697D01*
X004440Y020684D01*
X004364Y020660D01*
X004293Y020624D01*
X004229Y020577D01*
X004173Y020521D01*
X004126Y020456D01*
X004090Y020386D01*
X004065Y020310D01*
X004053Y020232D01*
X004053Y020192D01*
X004558Y020192D01*
X004558Y020192D01*
X004053Y020192D01*
X004053Y020152D01*
X004065Y020074D01*
X004127Y019926D02*
X002556Y019926D01*
X002608Y019767D02*
X004283Y019767D01*
X004091Y019450D02*
X005328Y019450D01*
X005328Y019292D02*
X004169Y019292D01*
X004176Y019133D02*
X005328Y019133D01*
X005328Y018975D02*
X004120Y018975D01*
X003942Y018816D02*
X005328Y018816D01*
X005328Y018658D02*
X003588Y018658D01*
X003588Y018499D02*
X005328Y018499D01*
X005328Y018341D02*
X003588Y018341D01*
X003588Y018182D02*
X005328Y018182D01*
X005328Y018024D02*
X003588Y018024D01*
X003588Y017865D02*
X005328Y017865D01*
X005328Y017707D02*
X003588Y017707D01*
X003588Y017548D02*
X005376Y017548D01*
X005535Y017390D02*
X003588Y017390D01*
X003588Y017231D02*
X005693Y017231D01*
X005852Y017073D02*
X003588Y017073D01*
X003588Y016914D02*
X006010Y016914D01*
X006169Y016756D02*
X003588Y016756D01*
X003588Y016597D02*
X006327Y016597D01*
X006382Y016439D02*
X003588Y016439D01*
X003588Y016280D02*
X006318Y016280D01*
X006318Y016122D02*
X003588Y016122D01*
X003588Y015963D02*
X006375Y015963D01*
X006339Y015329D02*
X005640Y015329D01*
X005482Y015171D02*
X006318Y015171D01*
X006303Y015012D02*
X006353Y015012D01*
X006357Y014378D02*
X006310Y014378D01*
X006318Y014220D02*
X004560Y014220D01*
X004542Y014061D02*
X006334Y014061D01*
X006417Y013903D02*
X004440Y013903D01*
X004689Y014378D02*
X005806Y014378D01*
X005689Y014537D02*
X004848Y014537D01*
X005006Y014695D02*
X005658Y014695D01*
X005692Y014854D02*
X005165Y014854D01*
X005323Y015012D02*
X005812Y015012D01*
X005335Y015646D02*
X003588Y015646D01*
X003588Y015488D02*
X005176Y015488D01*
X005018Y015329D02*
X003588Y015329D01*
X003588Y015171D02*
X004859Y015171D01*
X004701Y015012D02*
X003588Y015012D01*
X003588Y014854D02*
X004542Y014854D01*
X004384Y014695D02*
X003588Y014695D01*
X003588Y014537D02*
X004048Y014537D01*
X003851Y014378D02*
X003588Y014378D01*
X003588Y014220D02*
X003800Y014220D01*
X003818Y014061D02*
X003588Y014061D01*
X003588Y013903D02*
X003920Y013903D01*
X003128Y013903D02*
X002566Y013903D01*
X002608Y013744D02*
X003128Y013744D01*
X003128Y013586D02*
X002608Y013586D01*
X002544Y013427D02*
X003128Y013427D01*
X003128Y013269D02*
X002412Y013269D01*
X002418Y013110D02*
X003128Y013110D01*
X003128Y012952D02*
X002546Y012952D01*
X002608Y012793D02*
X003131Y012793D01*
X003290Y012635D02*
X002608Y012635D01*
X002564Y012476D02*
X003448Y012476D01*
X003450Y012318D02*
X002461Y012318D01*
X002209Y012159D02*
X003450Y012159D01*
X003450Y012001D02*
X000440Y012001D01*
X000440Y012159D02*
X001907Y012159D01*
X001654Y012318D02*
X000440Y012318D01*
X000440Y012476D02*
X001552Y012476D01*
X001508Y012635D02*
X000440Y012635D01*
X000440Y012793D02*
X001508Y012793D01*
X001570Y012952D02*
X000440Y012952D01*
X000440Y013110D02*
X001698Y013110D01*
X001703Y013269D02*
X000440Y013269D01*
X000440Y013427D02*
X001572Y013427D01*
X001508Y013586D02*
X000440Y013586D01*
X000440Y013744D02*
X001508Y013744D01*
X001550Y013903D02*
X000440Y013903D01*
X000440Y014061D02*
X001649Y014061D01*
X001761Y014220D02*
X000440Y014220D01*
X000440Y014378D02*
X001594Y014378D01*
X001527Y014537D02*
X000440Y014537D01*
X000440Y014695D02*
X001508Y014695D01*
X001530Y014854D02*
X000440Y014854D01*
X000440Y015012D02*
X001600Y015012D01*
X001776Y015171D02*
X000440Y015171D01*
X000440Y015329D02*
X001643Y015329D01*
X001547Y015488D02*
X000440Y015488D01*
X000440Y015646D02*
X001508Y015646D01*
X001509Y015805D02*
X000440Y015805D01*
X000440Y015963D02*
X001575Y015963D01*
X001710Y016122D02*
X000440Y016122D01*
X000440Y016280D02*
X001692Y016280D01*
X001568Y016439D02*
X000440Y016439D01*
X000440Y016597D02*
X001508Y016597D01*
X001508Y016756D02*
X000440Y016756D01*
X000440Y016914D02*
X001555Y016914D01*
X001661Y017073D02*
X000440Y017073D01*
X000440Y017231D02*
X001741Y017231D01*
X001588Y017390D02*
X000440Y017390D01*
X000440Y017548D02*
X001522Y017548D01*
X001508Y017707D02*
X000440Y017707D01*
X000440Y017865D02*
X001534Y017865D01*
X001612Y018024D02*
X000440Y018024D01*
X000440Y018182D02*
X001804Y018182D01*
X001631Y018341D02*
X000440Y018341D01*
X000440Y018499D02*
X001542Y018499D01*
X001508Y018658D02*
X000440Y018658D01*
X000440Y018816D02*
X001514Y018816D01*
X001450Y018975D02*
X000440Y018975D01*
X000440Y019133D02*
X001291Y019133D01*
X002312Y018182D02*
X003128Y018182D01*
X003128Y018024D02*
X002504Y018024D01*
X002582Y017865D02*
X003128Y017865D01*
X003128Y017707D02*
X002608Y017707D01*
X002594Y017548D02*
X003128Y017548D01*
X003128Y017390D02*
X002528Y017390D01*
X002375Y017231D02*
X003128Y017231D01*
X003128Y017073D02*
X002455Y017073D01*
X002561Y016914D02*
X003128Y016914D01*
X003128Y016756D02*
X002608Y016756D01*
X002608Y016597D02*
X003128Y016597D01*
X003128Y016439D02*
X002548Y016439D01*
X002424Y016280D02*
X003128Y016280D01*
X003128Y016122D02*
X002406Y016122D01*
X002541Y015963D02*
X003128Y015963D01*
X003128Y015805D02*
X002607Y015805D01*
X002608Y015646D02*
X003128Y015646D01*
X003128Y015488D02*
X002569Y015488D01*
X002473Y015329D02*
X003128Y015329D01*
X003128Y015171D02*
X002339Y015171D01*
X002516Y015012D02*
X003128Y015012D01*
X003128Y014854D02*
X002586Y014854D01*
X002608Y014695D02*
X003128Y014695D01*
X003128Y014537D02*
X002589Y014537D01*
X002522Y014378D02*
X003128Y014378D01*
X003128Y014220D02*
X002355Y014220D01*
X002467Y014061D02*
X003128Y014061D01*
X003588Y015805D02*
X005493Y015805D01*
X006186Y017390D02*
X006362Y017390D01*
X006484Y017548D02*
X006027Y017548D01*
X005869Y017707D02*
X007640Y017707D01*
X007632Y017548D02*
X007665Y017548D01*
X007662Y017865D02*
X007677Y017865D01*
X007766Y018024D02*
X007799Y018024D01*
X007798Y018182D02*
X007828Y018182D01*
X007828Y018341D02*
X007774Y018341D01*
X007828Y018499D02*
X007681Y018499D01*
X007828Y018658D02*
X005788Y018658D01*
X005788Y018816D02*
X006503Y018816D01*
X006370Y018975D02*
X005788Y018975D01*
X005788Y019133D02*
X006318Y019133D01*
X006321Y019292D02*
X005788Y019292D01*
X005788Y019450D02*
X006387Y019450D01*
X006582Y019609D02*
X005788Y019609D01*
X005847Y019767D02*
X006601Y019767D01*
X006394Y019926D02*
X005994Y019926D01*
X006060Y020084D02*
X006325Y020084D01*
X006318Y020243D02*
X006063Y020243D01*
X006018Y020401D02*
X006367Y020401D01*
X006495Y020560D02*
X005904Y020560D01*
X006345Y021035D02*
X003929Y021035D01*
X004028Y020877D02*
X006443Y020877D01*
X006406Y021669D02*
X009210Y021669D01*
X009368Y021828D02*
X007624Y021828D01*
X007751Y021986D02*
X009365Y021986D01*
X009318Y022145D02*
X007836Y022145D01*
X007994Y022303D02*
X009326Y022303D01*
X009397Y022462D02*
X008153Y022462D01*
X008311Y022620D02*
X009610Y022620D01*
X009051Y021511D02*
X007670Y021511D01*
X007769Y021352D02*
X008893Y021352D01*
X008734Y021194D02*
X007798Y021194D01*
X007771Y021035D02*
X008576Y021035D01*
X008417Y020877D02*
X007673Y020877D01*
X007621Y020560D02*
X008100Y020560D01*
X008259Y020718D02*
X004063Y020718D01*
X004050Y020560D02*
X004211Y020560D01*
X004098Y020401D02*
X003981Y020401D01*
X004055Y020243D02*
X003793Y020243D01*
X003844Y019609D02*
X005328Y019609D01*
X005269Y019767D02*
X004832Y019767D01*
X004989Y019926D02*
X005122Y019926D01*
X005056Y020084D02*
X005052Y020084D01*
X005018Y020401D02*
X005098Y020401D01*
X005211Y020560D02*
X004904Y020560D01*
X004558Y020560D02*
X004558Y020560D01*
X004558Y020401D02*
X004558Y020401D01*
X004558Y020243D02*
X004558Y020243D01*
X004558Y020192D02*
X004558Y020192D01*
X004558Y020084D02*
X004558Y020084D01*
X004558Y019926D02*
X004558Y019926D01*
X004558Y019767D02*
X004558Y019767D01*
X003672Y019609D02*
X002608Y019609D01*
X002553Y019450D02*
X003425Y019450D01*
X003347Y019292D02*
X002435Y019292D01*
X002395Y019133D02*
X003340Y019133D01*
X003215Y018975D02*
X002536Y018975D01*
X002602Y018816D02*
X003128Y018816D01*
X003128Y018658D02*
X002608Y018658D01*
X002573Y018499D02*
X003128Y018499D01*
X003128Y018341D02*
X002484Y018341D01*
X002496Y021352D02*
X003184Y021352D01*
X003086Y021511D02*
X002578Y021511D01*
X002608Y021669D02*
X003053Y021669D01*
X003071Y021828D02*
X002597Y021828D01*
X002531Y021986D02*
X003148Y021986D01*
X003334Y022145D02*
X002383Y022145D01*
X002558Y022462D02*
X005828Y022462D01*
X006288Y022462D02*
X006397Y022462D01*
X006326Y022303D02*
X006288Y022303D01*
X006288Y022145D02*
X006318Y022145D01*
X006288Y021986D02*
X006365Y021986D01*
X006288Y021828D02*
X006492Y021828D01*
X006610Y022620D02*
X006288Y022620D01*
X006288Y022779D02*
X007819Y022779D01*
X007661Y022620D02*
X007506Y022620D01*
X007373Y023730D02*
X007742Y023730D01*
X007588Y023888D02*
X007527Y023888D01*
X007506Y024522D02*
X007610Y024522D01*
X007801Y024681D02*
X007315Y024681D01*
X006588Y023888D02*
X006517Y023888D01*
X006357Y023730D02*
X006742Y023730D01*
X008373Y023730D02*
X008742Y023730D01*
X008588Y023888D02*
X008527Y023888D01*
X008506Y024522D02*
X008610Y024522D01*
X008801Y024681D02*
X008315Y024681D01*
X009315Y024681D02*
X009801Y024681D01*
X009610Y024522D02*
X009506Y024522D01*
X009527Y023888D02*
X009588Y023888D01*
X009742Y023730D02*
X009373Y023730D01*
X008628Y022937D02*
X010487Y022937D01*
X010646Y022779D02*
X008470Y022779D01*
X007942Y020401D02*
X007749Y020401D01*
X007800Y019609D02*
X007828Y019609D01*
X007828Y019450D02*
X007729Y019450D01*
X007795Y019292D02*
X007828Y019292D01*
X007828Y019133D02*
X007798Y019133D01*
X007828Y018975D02*
X007746Y018975D01*
X007828Y018816D02*
X007613Y018816D01*
X006435Y018499D02*
X005788Y018499D01*
X005788Y018341D02*
X006342Y018341D01*
X006318Y018182D02*
X005788Y018182D01*
X005788Y018024D02*
X006350Y018024D01*
X006454Y017865D02*
X005788Y017865D01*
X003450Y011842D02*
X000440Y011842D01*
X000440Y011684D02*
X003450Y011684D01*
X003450Y011525D02*
X000440Y011525D01*
X000440Y011367D02*
X003450Y011367D01*
X003450Y011208D02*
X002749Y011208D01*
X002667Y011242D02*
X002449Y011242D01*
X002246Y011158D01*
X002092Y011003D01*
X002008Y010801D01*
X002008Y010582D01*
X002092Y010380D01*
X002246Y010226D01*
X002328Y010192D01*
X002270Y010162D01*
X002200Y010111D01*
X002138Y010050D01*
X002088Y009980D01*
X002048Y009903D01*
X002021Y009821D01*
X002008Y009735D01*
X002008Y009692D01*
X002558Y009692D01*
X003108Y009692D01*
X003108Y009735D01*
X003094Y009821D01*
X003068Y009903D01*
X003028Y009980D01*
X002977Y010050D01*
X002916Y010111D01*
X002846Y010162D01*
X002788Y010192D01*
X002870Y010226D01*
X003024Y010380D01*
X003108Y010582D01*
X003108Y010801D01*
X003024Y011003D01*
X002870Y011158D01*
X002667Y011242D01*
X002367Y011208D02*
X000440Y011208D01*
X000440Y011050D02*
X002138Y011050D01*
X002045Y010891D02*
X000440Y010891D01*
X000440Y010733D02*
X002008Y010733D01*
X002011Y010574D02*
X000440Y010574D01*
X000440Y010416D02*
X002077Y010416D01*
X002215Y010257D02*
X000440Y010257D01*
X000440Y010099D02*
X002187Y010099D01*
X002067Y009940D02*
X000440Y009940D01*
X000440Y009782D02*
X002015Y009782D01*
X002008Y009692D02*
X002008Y009649D01*
X002021Y009563D01*
X002048Y009481D01*
X002088Y009404D01*
X002138Y009334D01*
X002200Y009272D01*
X002270Y009221D01*
X002328Y009192D01*
X002246Y009158D01*
X002092Y009003D01*
X002008Y008801D01*
X002008Y008582D01*
X002092Y008380D01*
X002246Y008226D01*
X002449Y008142D01*
X002667Y008142D01*
X002870Y008226D01*
X003024Y008380D01*
X003108Y008582D01*
X003108Y008801D01*
X003024Y009003D01*
X002870Y009158D01*
X002788Y009192D01*
X002846Y009221D01*
X002916Y009272D01*
X002977Y009334D01*
X003028Y009404D01*
X003068Y009481D01*
X003094Y009563D01*
X003108Y009649D01*
X003108Y009692D01*
X002558Y009692D01*
X002558Y009692D01*
X002558Y009692D01*
X002008Y009692D01*
X002012Y009623D02*
X000440Y009623D01*
X000440Y009465D02*
X002056Y009465D01*
X002166Y009306D02*
X000440Y009306D01*
X000440Y009148D02*
X002236Y009148D01*
X002086Y008989D02*
X000440Y008989D01*
X000440Y008831D02*
X002020Y008831D01*
X002008Y008672D02*
X000440Y008672D01*
X000440Y008514D02*
X002036Y008514D01*
X002117Y008355D02*
X000440Y008355D01*
X000440Y008197D02*
X002316Y008197D01*
X002799Y008197D02*
X003450Y008197D01*
X003450Y008355D02*
X002999Y008355D01*
X003079Y008514D02*
X003450Y008514D01*
X003450Y008672D02*
X003108Y008672D01*
X003096Y008831D02*
X003450Y008831D01*
X003450Y008989D02*
X003030Y008989D01*
X002880Y009148D02*
X003450Y009148D01*
X003450Y009306D02*
X002950Y009306D01*
X003059Y009465D02*
X003450Y009465D01*
X003450Y009623D02*
X003104Y009623D01*
X003101Y009782D02*
X003450Y009782D01*
X003450Y009940D02*
X003049Y009940D01*
X002929Y010099D02*
X003450Y010099D01*
X003450Y010257D02*
X002901Y010257D01*
X003039Y010416D02*
X003450Y010416D01*
X003450Y010574D02*
X003104Y010574D01*
X003108Y010733D02*
X003450Y010733D01*
X003450Y010891D02*
X003071Y010891D01*
X002978Y011050D02*
X003450Y011050D01*
X003450Y008038D02*
X000440Y008038D01*
X000440Y007880D02*
X003450Y007880D01*
X003450Y007721D02*
X000440Y007721D01*
X000440Y007563D02*
X003450Y007563D01*
X003450Y007404D02*
X000440Y007404D01*
X000440Y007246D02*
X003450Y007246D01*
X003450Y007087D02*
X000440Y007087D01*
X002759Y006929D02*
X003450Y006929D01*
X003934Y004868D02*
X013231Y004868D01*
X013231Y004710D02*
X004092Y004710D01*
X004251Y004551D02*
X013231Y004551D01*
X013231Y004393D02*
X004409Y004393D01*
X004568Y004234D02*
X012821Y004234D01*
X012709Y004076D02*
X004726Y004076D01*
X004885Y003917D02*
X012682Y003917D01*
X012720Y003759D02*
X005043Y003759D01*
X005202Y003600D02*
X012847Y003600D01*
X013231Y003442D02*
X005360Y003442D01*
X005519Y003283D02*
X013231Y003283D01*
X013231Y003125D02*
X005677Y003125D01*
X005836Y002966D02*
X013231Y002966D01*
X013235Y002808D02*
X005994Y002808D01*
X006701Y002649D02*
X013231Y002649D01*
X013231Y002491D02*
X006701Y002491D01*
X006701Y002332D02*
X013231Y002332D01*
X013231Y002174D02*
X006701Y002174D01*
X006691Y002015D02*
X013240Y002015D01*
X014811Y001223D02*
X005799Y001223D01*
X005640Y001381D02*
X014970Y001381D01*
X015128Y001540D02*
X005482Y001540D01*
X005323Y001698D02*
X015287Y001698D01*
X015592Y001381D02*
X016420Y001381D01*
X016420Y001223D02*
X015434Y001223D01*
X015275Y001064D02*
X016420Y001064D01*
X016420Y000906D02*
X015117Y000906D01*
X014958Y000747D02*
X016420Y000747D01*
X016420Y000589D02*
X002940Y000589D01*
X002940Y000747D02*
X005652Y000747D01*
X005493Y000906D02*
X002940Y000906D01*
X002940Y001064D02*
X005335Y001064D01*
X005176Y001223D02*
X002940Y001223D01*
X002940Y001381D02*
X005018Y001381D01*
X004607Y001540D02*
X002940Y001540D01*
X002940Y001698D02*
X004504Y001698D01*
X004482Y001857D02*
X002940Y001857D01*
X002940Y002015D02*
X004526Y002015D01*
X004669Y002174D02*
X002940Y002174D01*
X007627Y008831D02*
X008594Y008831D01*
X008435Y008989D02*
X007752Y008989D01*
X007798Y009148D02*
X008277Y009148D01*
X008118Y009306D02*
X007789Y009306D01*
X007716Y009465D02*
X007960Y009465D01*
X007801Y009623D02*
X007499Y009623D01*
X007549Y009782D02*
X007643Y009782D01*
X010589Y013586D02*
X014060Y013586D01*
X013902Y013427D02*
X010738Y013427D01*
X010798Y013269D02*
X013743Y013269D01*
X013585Y013110D02*
X010798Y013110D01*
X010736Y012952D02*
X013426Y012952D01*
X013268Y012793D02*
X010782Y012793D01*
X011997Y009306D02*
X016420Y009306D01*
X016420Y009148D02*
X011839Y009148D01*
X011680Y008989D02*
X016420Y008989D01*
X016420Y008831D02*
X011522Y008831D01*
X011363Y008672D02*
X016420Y008672D01*
X016420Y008514D02*
X011205Y008514D01*
X013759Y007404D02*
X013849Y007404D01*
X013849Y007246D02*
X013759Y007246D01*
X013759Y006929D02*
X013849Y006929D01*
X013849Y006770D02*
X013759Y006770D01*
X016050Y003283D02*
X016420Y003283D01*
X016420Y003125D02*
X016050Y003125D01*
X016050Y002966D02*
X016420Y002966D01*
X016420Y002808D02*
X016050Y002808D01*
X016050Y002649D02*
X016420Y002649D01*
X016420Y002491D02*
X016050Y002491D01*
X016050Y002332D02*
X016420Y002332D01*
X016420Y002174D02*
X016050Y002174D01*
X016050Y002015D02*
X016420Y002015D01*
X016420Y001857D02*
X016050Y001857D01*
X015909Y001698D02*
X016420Y001698D01*
X016420Y001540D02*
X015751Y001540D01*
X014580Y018975D02*
X014166Y018975D01*
X014324Y019133D02*
X014721Y019133D01*
X014680Y019292D02*
X014483Y019292D01*
X013027Y021986D02*
X012478Y021986D01*
X012383Y022303D02*
X013344Y022303D01*
X013502Y022462D02*
X012509Y022462D01*
X012563Y022620D02*
X013661Y022620D01*
X013819Y022779D02*
X012563Y022779D01*
X012503Y022937D02*
X014564Y022937D01*
X014684Y023096D02*
X012368Y023096D01*
X012285Y022145D02*
X013185Y022145D01*
X011568Y021828D02*
X010747Y021828D01*
X010751Y021986D02*
X011438Y021986D01*
X011280Y022145D02*
X010798Y022145D01*
X010790Y022303D02*
X011121Y022303D01*
X010963Y022462D02*
X010719Y022462D01*
X010804Y022620D02*
X010506Y022620D01*
X010979Y023096D02*
X011146Y023096D01*
X011140Y023254D02*
X010821Y023254D01*
X010662Y023413D02*
X011197Y023413D01*
X011222Y022937D02*
X011138Y022937D01*
X011296Y022779D02*
X011464Y022779D01*
X011455Y022620D02*
X011553Y022620D01*
X011553Y021669D02*
X010906Y021669D01*
X011064Y021511D02*
X011586Y021511D01*
X010742Y023730D02*
X010373Y023730D01*
X010527Y023888D02*
X010588Y023888D01*
X010610Y024522D02*
X010506Y024522D01*
X010315Y024681D02*
X010801Y024681D01*
D17*
X010558Y023192D02*
X012058Y021692D01*
X013058Y021692D01*
X014058Y022692D01*
X015058Y022692D01*
X015058Y021692D02*
X014558Y021192D01*
X011058Y021192D01*
X010558Y021692D01*
X009558Y021692D01*
X007058Y019192D01*
X008058Y019692D02*
X008058Y017692D01*
X008558Y017192D02*
X007058Y017192D01*
X007058Y016192D02*
X005558Y017692D01*
X005558Y020192D01*
X006558Y021192D02*
X006058Y021692D01*
X006058Y022692D01*
X003558Y022692D01*
X002558Y023692D01*
X001058Y023692D01*
X001058Y019692D01*
X002058Y018692D01*
X003358Y018792D02*
X003358Y012892D01*
X003680Y012570D01*
X003680Y004797D01*
X006127Y002349D01*
X006127Y007074D02*
X005480Y007721D01*
X005480Y010330D01*
X007058Y010192D02*
X007558Y010192D01*
X009058Y008692D01*
X011058Y008692D01*
X012058Y009692D01*
X015558Y009692D01*
X016058Y010192D01*
X016058Y015692D01*
X015058Y016692D01*
X015058Y018692D02*
X013558Y018692D01*
X010558Y015692D01*
X009058Y015692D01*
X008058Y014692D01*
X008058Y012692D01*
X007558Y012192D01*
X007058Y012192D01*
X007058Y011192D02*
X007558Y011192D01*
X008558Y012192D01*
X008558Y014192D01*
X009058Y014692D01*
X008558Y015692D02*
X007558Y014692D01*
X006058Y014692D01*
X008558Y017192D02*
X009058Y017692D01*
X011558Y017692D01*
X013058Y019192D01*
X014058Y019192D01*
X014558Y019692D01*
X015058Y019692D01*
X015058Y020692D02*
X014558Y020692D01*
X013558Y019692D01*
X011058Y019692D01*
X010058Y021192D02*
X009558Y021192D01*
X008058Y019692D01*
X007058Y021192D02*
X006558Y021192D01*
X007058Y022192D02*
X007558Y022192D01*
X008558Y023192D01*
X010558Y023192D01*
X011558Y023192D02*
X012058Y023692D01*
X012058Y025192D01*
X001558Y025192D01*
X001058Y024692D01*
X003758Y019192D02*
X003358Y018792D01*
X010058Y015192D02*
X011058Y015192D01*
X011558Y015692D01*
X012558Y015692D01*
X013058Y015192D01*
X013558Y015192D01*
X014492Y013692D02*
X013330Y012530D01*
X010720Y012530D01*
X010058Y013192D01*
X010058Y012192D02*
X010070Y012180D01*
X013680Y012180D01*
X014192Y012692D01*
X015058Y012692D01*
X015058Y013692D02*
X014492Y013692D01*
X014192Y011692D02*
X013680Y011180D01*
X010070Y011180D01*
X010058Y011192D01*
X010058Y010192D02*
X010070Y010180D01*
X012180Y010180D01*
X012692Y010692D01*
X015058Y010692D01*
X015058Y011692D02*
X014192Y011692D01*
D18*
X010180Y013180D02*
X010058Y013192D01*
X010180Y013180D02*
X007680Y010680D01*
X006680Y010680D01*
X006130Y010130D01*
X006130Y009530D01*
X004180Y014180D02*
X005680Y015680D01*
X007680Y015680D01*
X008180Y016180D01*
X008680Y016180D01*
X009680Y017180D01*
X010058Y017192D01*
X013804Y004711D02*
X014399Y004711D01*
X015830Y003280D01*
X015830Y001930D01*
X014780Y000880D01*
X005830Y000880D01*
X004880Y001830D01*
X013080Y003930D02*
X013086Y003924D01*
X013804Y003924D01*
X013804Y003137D02*
X014180Y003180D01*
X014680Y003680D01*
X015180Y003180D02*
X014180Y002180D01*
X013804Y002349D01*
D19*
X014680Y003680D03*
X015180Y003180D03*
X004180Y014180D03*
D20*
X005480Y010330D03*
X006130Y009530D03*
X004880Y001830D03*
X013080Y003930D03*
D21*
X009058Y014692D03*
X008058Y017692D03*
X011058Y019692D03*
X011558Y023192D03*
X003758Y019192D03*
X001058Y024692D03*
D22*
X006058Y014692D03*
X008558Y015692D03*
D23*
X013804Y006286D02*
X013865Y006276D01*
X015245Y006276D01*
M02*
