G75*
%MOIN*%
%OFA0B0*%
%FSLAX24Y24*%
%IPPOS*%
%LPD*%
%AMOC8*
5,1,8,0,0,1.08239X$1,22.5*
%
%ADD10C,0.0160*%
%ADD11C,0.0740*%
%ADD12R,0.0394X0.0551*%
%ADD13C,0.0650*%
%ADD14C,0.0560*%
%ADD15R,0.1600X0.0600*%
%ADD16R,0.0600X0.0300*%
%ADD17C,0.0080*%
%ADD18C,0.0400*%
%ADD19C,0.0100*%
%ADD20C,0.0436*%
%ADD21C,0.0476*%
%ADD22C,0.0440*%
D10*
X002680Y000180D02*
X002680Y006680D01*
X000180Y006680D01*
X000180Y026180D01*
X016680Y026180D01*
X016680Y000180D01*
X002680Y000180D01*
X002940Y000440D02*
X002940Y006732D01*
X002900Y006827D01*
X002827Y006900D01*
X002732Y006940D01*
X000440Y006940D01*
X000440Y025920D01*
X016420Y025920D01*
X016420Y000440D01*
X002940Y000440D01*
X002940Y000589D02*
X016420Y000589D01*
X016420Y000747D02*
X002940Y000747D01*
X002940Y000906D02*
X016420Y000906D01*
X016420Y001064D02*
X002940Y001064D01*
X002940Y001223D02*
X016420Y001223D01*
X016420Y001381D02*
X002940Y001381D01*
X002940Y001540D02*
X004607Y001540D01*
X004654Y001492D02*
X004801Y001432D01*
X004959Y001432D01*
X005106Y001492D01*
X005218Y001604D01*
X005278Y001751D01*
X005278Y001909D01*
X005218Y002056D01*
X005106Y002168D01*
X005100Y002170D01*
X005100Y008189D01*
X006045Y009134D01*
X006051Y009132D01*
X006209Y009132D01*
X006318Y009177D01*
X006318Y009100D01*
X006388Y008931D01*
X006517Y008802D01*
X006686Y008732D01*
X007193Y008732D01*
X007963Y007962D01*
X011153Y007962D01*
X011288Y008097D01*
X011788Y008597D01*
X011788Y013097D01*
X012153Y013462D01*
X014153Y013462D01*
X014288Y013597D01*
X014519Y013827D01*
X014508Y013801D01*
X014508Y013582D01*
X014592Y013380D01*
X014746Y013226D01*
X014828Y013192D01*
X014746Y013158D01*
X014592Y013003D01*
X014508Y012801D01*
X014508Y012582D01*
X014585Y012396D01*
X012860Y010671D01*
X012860Y004270D01*
X012854Y004268D01*
X012742Y004156D01*
X012682Y004009D01*
X012682Y003851D01*
X012742Y003704D01*
X012854Y003592D01*
X013001Y003532D01*
X013159Y003532D01*
X013306Y003592D01*
X013418Y003704D01*
X013478Y003851D01*
X013478Y004009D01*
X013418Y004156D01*
X013306Y004268D01*
X013300Y004270D01*
X013300Y010489D01*
X014508Y011697D01*
X014508Y011582D01*
X014585Y011396D01*
X013460Y010271D01*
X013460Y004589D01*
X013589Y004460D01*
X014300Y003749D01*
X014300Y003604D01*
X014358Y003465D01*
X014465Y003358D01*
X014604Y003300D01*
X014756Y003300D01*
X014831Y003331D01*
X014800Y003256D01*
X014800Y003104D01*
X014858Y002965D01*
X014965Y002858D01*
X015104Y002800D01*
X015256Y002800D01*
X015395Y002858D01*
X015502Y002965D01*
X015560Y003104D01*
X015560Y003256D01*
X015502Y003395D01*
X015400Y003497D01*
X015400Y003771D01*
X014400Y004771D01*
X014400Y004801D01*
X014421Y004796D01*
X015175Y004796D01*
X015175Y005206D01*
X015315Y005206D01*
X015315Y005346D01*
X016225Y005346D01*
X016225Y005599D01*
X016212Y005645D01*
X016189Y005686D01*
X016155Y005720D01*
X016114Y005743D01*
X016068Y005756D01*
X015315Y005756D01*
X015315Y005346D01*
X015175Y005346D01*
X015175Y005756D01*
X014421Y005756D01*
X014400Y005750D01*
X014400Y006801D01*
X014421Y006796D01*
X015175Y006796D01*
X015175Y007206D01*
X015315Y007206D01*
X015315Y007346D01*
X016225Y007346D01*
X016225Y007599D01*
X016212Y007645D01*
X016189Y007686D01*
X016155Y007720D01*
X016114Y007743D01*
X016068Y007756D01*
X015315Y007756D01*
X015315Y007346D01*
X015175Y007346D01*
X015175Y007756D01*
X014421Y007756D01*
X014400Y007750D01*
X014400Y009589D01*
X014953Y010142D01*
X015167Y010142D01*
X015370Y010226D01*
X015524Y010380D01*
X015608Y010582D01*
X015608Y010801D01*
X015524Y011003D01*
X015370Y011158D01*
X015288Y011192D01*
X015370Y011226D01*
X015524Y011380D01*
X015608Y011582D01*
X015608Y011801D01*
X015524Y012003D01*
X015370Y012158D01*
X015288Y012192D01*
X015370Y012226D01*
X015524Y012380D01*
X015608Y012582D01*
X015608Y012801D01*
X015524Y013003D01*
X015370Y013158D01*
X015288Y013192D01*
X015370Y013226D01*
X015524Y013380D01*
X015608Y013582D01*
X015608Y013801D01*
X015541Y013962D01*
X016153Y013962D01*
X016288Y014097D01*
X016288Y015287D01*
X016153Y015422D01*
X015653Y015922D01*
X015558Y015922D01*
X015524Y016003D01*
X015370Y016158D01*
X015288Y016192D01*
X015370Y016226D01*
X015524Y016380D01*
X015608Y016582D01*
X015608Y016801D01*
X015524Y017003D01*
X015370Y017158D01*
X015288Y017192D01*
X015370Y017226D01*
X015524Y017380D01*
X015608Y017582D01*
X015608Y017801D01*
X015524Y018003D01*
X015370Y018158D01*
X015288Y018192D01*
X015370Y018226D01*
X015524Y018380D01*
X015608Y018582D01*
X015608Y018801D01*
X015524Y019003D01*
X015370Y019158D01*
X015288Y019192D01*
X015370Y019226D01*
X015524Y019380D01*
X015608Y019582D01*
X015608Y019801D01*
X015524Y020003D01*
X015370Y020158D01*
X015288Y020192D01*
X015370Y020226D01*
X015524Y020380D01*
X015608Y020582D01*
X015608Y020801D01*
X015524Y021003D01*
X015370Y021158D01*
X015288Y021192D01*
X015370Y021226D01*
X015524Y021380D01*
X015608Y021582D01*
X015608Y021801D01*
X015524Y022003D01*
X015370Y022158D01*
X015288Y022192D01*
X015370Y022226D01*
X015524Y022380D01*
X015608Y022582D01*
X015608Y022801D01*
X015524Y023003D01*
X015370Y023158D01*
X015288Y023192D01*
X015288Y023612D01*
X015533Y023612D01*
X015638Y023717D01*
X015638Y024166D01*
X015533Y024272D01*
X014783Y024272D01*
X014678Y024166D01*
X014678Y023717D01*
X014783Y023612D01*
X014828Y023612D01*
X014828Y023192D01*
X014746Y023158D01*
X014592Y023003D01*
X014508Y022801D01*
X014508Y022582D01*
X014592Y022380D01*
X014746Y022226D01*
X014828Y022192D01*
X014746Y022158D01*
X014592Y022003D01*
X014508Y021801D01*
X014508Y021582D01*
X014592Y021380D01*
X014746Y021226D01*
X014828Y021192D01*
X014746Y021158D01*
X014592Y021003D01*
X014508Y020801D01*
X014508Y020582D01*
X014592Y020380D01*
X014746Y020226D01*
X014828Y020192D01*
X014746Y020158D01*
X014592Y020003D01*
X014508Y019801D01*
X014508Y019582D01*
X014592Y019380D01*
X014746Y019226D01*
X014828Y019192D01*
X014746Y019158D01*
X014592Y019003D01*
X014508Y018801D01*
X014508Y018582D01*
X014592Y018380D01*
X014746Y018226D01*
X014828Y018192D01*
X014746Y018158D01*
X014592Y018003D01*
X014558Y017922D01*
X012463Y017922D01*
X012328Y017787D01*
X010794Y016253D01*
X010787Y016300D01*
X010764Y016368D01*
X010731Y016433D01*
X010689Y016491D01*
X010638Y016543D01*
X010579Y016585D01*
X010515Y016618D01*
X010446Y016640D01*
X010374Y016652D01*
X010058Y016652D01*
X010058Y016192D01*
X010058Y016192D01*
X010058Y016652D01*
X009742Y016652D01*
X009670Y016640D01*
X009601Y016618D01*
X009537Y016585D01*
X009478Y016543D01*
X009427Y016491D01*
X009385Y016433D01*
X009352Y016368D01*
X009329Y016300D01*
X009318Y016228D01*
X009318Y016192D01*
X010058Y016192D01*
X010058Y016192D01*
X009318Y016192D01*
X009318Y016156D01*
X009329Y016084D01*
X009352Y016015D01*
X009385Y015951D01*
X009406Y015922D01*
X008963Y015922D01*
X008915Y015874D01*
X008897Y015918D01*
X008788Y016027D01*
X008788Y016597D01*
X009560Y016597D01*
X009629Y016756D02*
X008947Y016756D01*
X009105Y016914D02*
X009405Y016914D01*
X009388Y016931D02*
X009517Y016802D01*
X009686Y016732D01*
X010429Y016732D01*
X010599Y016802D01*
X010728Y016931D01*
X010798Y017100D01*
X010798Y017283D01*
X010728Y017452D01*
X010599Y017582D01*
X010429Y017652D01*
X009843Y017652D01*
X009923Y017732D01*
X010429Y017732D01*
X010599Y017802D01*
X010728Y017931D01*
X010798Y018100D01*
X010798Y018283D01*
X010728Y018452D01*
X010599Y018582D01*
X010429Y018652D01*
X009843Y018652D01*
X009923Y018732D01*
X010429Y018732D01*
X010599Y018802D01*
X010728Y018931D01*
X010798Y019100D01*
X010798Y019283D01*
X010743Y019416D01*
X010821Y019338D01*
X010975Y019274D01*
X011141Y019274D01*
X011295Y019338D01*
X011412Y019455D01*
X011476Y019609D01*
X011476Y019775D01*
X011412Y019928D01*
X011295Y020046D01*
X011141Y020110D01*
X010975Y020110D01*
X010821Y020046D01*
X010743Y019968D01*
X010798Y020100D01*
X010798Y020107D01*
X011153Y020462D01*
X011288Y020597D01*
X011288Y022597D01*
X011468Y022777D01*
X011475Y022774D01*
X011553Y022774D01*
X011553Y022591D01*
X011630Y022406D01*
X011772Y022264D01*
X011945Y022192D01*
X011772Y022120D01*
X011630Y021978D01*
X011553Y021792D01*
X011553Y021591D01*
X011630Y021406D01*
X011772Y021264D01*
X011828Y021240D01*
X011828Y020692D01*
X011746Y020658D01*
X011592Y020503D01*
X011508Y020301D01*
X011508Y020082D01*
X011592Y019880D01*
X011746Y019726D01*
X011949Y019642D01*
X012167Y019642D01*
X012370Y019726D01*
X012524Y019880D01*
X012608Y020082D01*
X012608Y020301D01*
X012524Y020503D01*
X012370Y020658D01*
X012288Y020692D01*
X012288Y021240D01*
X012344Y021264D01*
X012486Y021406D01*
X012563Y021591D01*
X012563Y021792D01*
X012486Y021978D01*
X012344Y022120D01*
X012170Y022192D01*
X012344Y022264D01*
X012486Y022406D01*
X012563Y022591D01*
X012563Y022792D01*
X012486Y022978D01*
X012344Y023120D01*
X012288Y023143D01*
X012288Y023787D01*
X011788Y024287D01*
X011653Y024422D01*
X011558Y024422D01*
X011524Y024503D01*
X011370Y024658D01*
X011167Y024742D01*
X010949Y024742D01*
X010746Y024658D01*
X010592Y024503D01*
X010558Y024422D01*
X010524Y024503D01*
X010370Y024658D01*
X010167Y024742D01*
X009949Y024742D01*
X009746Y024658D01*
X009592Y024503D01*
X009558Y024422D01*
X009524Y024503D01*
X009370Y024658D01*
X009167Y024742D01*
X008949Y024742D01*
X008746Y024658D01*
X008592Y024503D01*
X008558Y024422D01*
X008524Y024503D01*
X008370Y024658D01*
X008167Y024742D01*
X007949Y024742D01*
X007746Y024658D01*
X007592Y024503D01*
X007558Y024422D01*
X007524Y024503D01*
X007370Y024658D01*
X007167Y024742D01*
X006949Y024742D01*
X006746Y024658D01*
X006592Y024503D01*
X006558Y024422D01*
X006528Y024480D01*
X006477Y024550D01*
X006416Y024611D01*
X006346Y024662D01*
X006269Y024702D01*
X006187Y024728D01*
X006101Y024742D01*
X006078Y024742D01*
X006078Y024212D01*
X006038Y024212D01*
X006038Y024742D01*
X006015Y024742D01*
X005929Y024728D01*
X005847Y024702D01*
X005770Y024662D01*
X005700Y024611D01*
X005638Y024550D01*
X005588Y024480D01*
X005548Y024403D01*
X005521Y024321D01*
X005508Y024235D01*
X005508Y024212D01*
X006038Y024212D01*
X006038Y024172D01*
X005508Y024172D01*
X005508Y024149D01*
X005521Y024063D01*
X005548Y023981D01*
X005588Y023904D01*
X005638Y023834D01*
X005700Y023772D01*
X005770Y023721D01*
X005847Y023682D01*
X005929Y023655D01*
X006015Y023642D01*
X006038Y023642D01*
X006038Y024172D01*
X006078Y024172D01*
X006078Y023642D01*
X006101Y023642D01*
X006187Y023655D01*
X006269Y023682D01*
X006346Y023721D01*
X006416Y023772D01*
X006477Y023834D01*
X006528Y023904D01*
X006558Y023962D01*
X006592Y023880D01*
X006746Y023726D01*
X006949Y023642D01*
X007167Y023642D01*
X007370Y023726D01*
X007524Y023880D01*
X007558Y023962D01*
X007592Y023880D01*
X007735Y023737D01*
X007450Y023452D01*
X005506Y023452D01*
X005411Y023412D01*
X005296Y023297D01*
X005278Y023339D01*
X005052Y023565D01*
X005063Y023591D01*
X005063Y023792D01*
X004986Y023978D01*
X004844Y024120D01*
X004658Y024197D01*
X004458Y024197D01*
X004272Y024120D01*
X004130Y023978D01*
X004053Y023793D01*
X004051Y023810D01*
X004026Y023886D01*
X003990Y023956D01*
X003943Y024021D01*
X003887Y024077D01*
X003823Y024124D01*
X003752Y024160D01*
X003676Y024184D01*
X003598Y024197D01*
X003558Y024197D01*
X003558Y023692D01*
X003558Y023692D01*
X003558Y024197D01*
X003518Y024197D01*
X003440Y024184D01*
X003364Y024160D01*
X003293Y024124D01*
X003229Y024077D01*
X003173Y024021D01*
X003126Y023956D01*
X003090Y023886D01*
X003065Y023810D01*
X003053Y023732D01*
X003053Y023692D01*
X003558Y023692D01*
X003558Y023692D01*
X003053Y023692D01*
X003053Y023652D01*
X003065Y023574D01*
X003090Y023498D01*
X003126Y023427D01*
X003173Y023363D01*
X003229Y023307D01*
X003293Y023260D01*
X003364Y023224D01*
X003440Y023199D01*
X003518Y023187D01*
X003558Y023187D01*
X003598Y023187D01*
X003676Y023199D01*
X003708Y023210D01*
X003450Y022952D01*
X003006Y022952D01*
X002911Y022912D01*
X002838Y022839D01*
X002601Y022602D01*
X002608Y022649D01*
X002608Y022672D01*
X002078Y022672D01*
X002078Y022712D01*
X002038Y022712D01*
X002038Y023242D01*
X002015Y023242D01*
X001929Y023228D01*
X001847Y023202D01*
X001770Y023162D01*
X001700Y023111D01*
X001638Y023050D01*
X001588Y022980D01*
X001548Y022903D01*
X001521Y022821D01*
X001508Y022735D01*
X001508Y022712D01*
X002038Y022712D01*
X002038Y022672D01*
X001508Y022672D01*
X001508Y022649D01*
X001521Y022563D01*
X001548Y022481D01*
X001588Y022404D01*
X001638Y022334D01*
X001700Y022272D01*
X001770Y022221D01*
X001828Y022192D01*
X001746Y022158D01*
X001592Y022003D01*
X001508Y021801D01*
X001508Y021582D01*
X001592Y021380D01*
X001746Y021226D01*
X001828Y021192D01*
X001746Y021158D01*
X001592Y021003D01*
X001508Y020801D01*
X001508Y020582D01*
X001592Y020380D01*
X001746Y020226D01*
X001828Y020192D01*
X001746Y020158D01*
X001592Y020003D01*
X001508Y019801D01*
X001508Y019582D01*
X001592Y019380D01*
X001746Y019226D01*
X001828Y019192D01*
X001746Y019158D01*
X001592Y019003D01*
X001508Y018801D01*
X001508Y018582D01*
X001592Y018380D01*
X001746Y018226D01*
X001828Y018192D01*
X001746Y018158D01*
X001592Y018003D01*
X001508Y017801D01*
X001508Y017582D01*
X001592Y017380D01*
X001746Y017226D01*
X001828Y017192D01*
X001746Y017158D01*
X001592Y017003D01*
X001508Y016801D01*
X001508Y016582D01*
X001519Y016556D01*
X001288Y016787D01*
X001288Y024335D01*
X001295Y024338D01*
X001412Y024455D01*
X001476Y024609D01*
X001476Y024775D01*
X001412Y024928D01*
X001295Y025046D01*
X001141Y025110D01*
X000975Y025110D01*
X000821Y025046D01*
X000704Y024928D01*
X000640Y024775D01*
X000640Y024609D01*
X000704Y024455D01*
X000821Y024338D01*
X000828Y024335D01*
X000828Y016597D01*
X000440Y016597D01*
X000440Y016439D02*
X000986Y016439D01*
X000828Y016597D02*
X001542Y015883D01*
X001508Y015801D01*
X001508Y015582D01*
X001592Y015380D01*
X001746Y015226D01*
X001828Y015192D01*
X001746Y015158D01*
X001592Y015003D01*
X001508Y014801D01*
X001508Y014582D01*
X001592Y014380D01*
X001746Y014226D01*
X001828Y014192D01*
X001746Y014158D01*
X001592Y014003D01*
X001508Y013801D01*
X001508Y013582D01*
X001592Y013380D01*
X001746Y013226D01*
X001828Y013192D01*
X001746Y013158D01*
X001592Y013003D01*
X001508Y012801D01*
X001508Y012582D01*
X001592Y012380D01*
X001746Y012226D01*
X001949Y012142D01*
X002167Y012142D01*
X002370Y012226D01*
X002524Y012380D01*
X002557Y012460D01*
X002771Y012460D01*
X002900Y012589D01*
X004111Y013800D01*
X004256Y013800D01*
X004395Y013858D01*
X004502Y013965D01*
X004560Y014104D01*
X004560Y014256D01*
X004502Y014395D01*
X004436Y014462D01*
X005722Y014462D01*
X005831Y014353D01*
X005978Y014292D01*
X006138Y014292D01*
X006285Y014353D01*
X006397Y014465D01*
X006458Y014612D01*
X006458Y014771D01*
X006397Y014918D01*
X006285Y015031D01*
X006138Y015092D01*
X005978Y015092D01*
X005831Y015031D01*
X005722Y014922D01*
X002963Y014922D01*
X002597Y014556D01*
X002608Y014582D01*
X002608Y014801D01*
X002574Y014883D01*
X004153Y016462D01*
X006397Y016462D01*
X006388Y016452D01*
X006318Y016283D01*
X006318Y016100D01*
X006388Y015931D01*
X006517Y015802D01*
X006686Y015732D01*
X007193Y015732D01*
X007273Y015652D01*
X007058Y015652D01*
X007058Y015192D01*
X007058Y015192D01*
X007058Y015652D01*
X006742Y015652D01*
X006670Y015640D01*
X006601Y015618D01*
X006537Y015585D01*
X006478Y015543D01*
X006427Y015491D01*
X006385Y015433D01*
X006352Y015368D01*
X006329Y015300D01*
X006318Y015228D01*
X006318Y015192D01*
X007058Y015192D01*
X007058Y015192D01*
X006318Y015192D01*
X006318Y015156D01*
X006329Y015084D01*
X006352Y015015D01*
X006385Y014951D01*
X006427Y014892D01*
X006478Y014841D01*
X006537Y014798D01*
X006601Y014766D01*
X006670Y014743D01*
X006742Y014732D01*
X007058Y014732D01*
X007374Y014732D01*
X007446Y014743D01*
X007515Y014766D01*
X007579Y014798D01*
X007638Y014841D01*
X007689Y014892D01*
X007731Y014951D01*
X007764Y015015D01*
X007787Y015084D01*
X007794Y015131D01*
X007828Y015097D01*
X007828Y014597D01*
X008328Y014097D01*
X008463Y013962D01*
X008800Y013962D01*
X008800Y013225D01*
X007798Y012223D01*
X007798Y012283D01*
X007728Y012452D01*
X007599Y012582D01*
X007429Y012652D01*
X006843Y012652D01*
X006923Y012732D01*
X007429Y012732D01*
X007599Y012802D01*
X007728Y012931D01*
X007798Y013100D01*
X007798Y013283D01*
X007728Y013452D01*
X007599Y013582D01*
X007429Y013652D01*
X006843Y013652D01*
X006923Y013732D01*
X007429Y013732D01*
X007599Y013802D01*
X007728Y013931D01*
X007798Y014100D01*
X007798Y014283D01*
X007728Y014452D01*
X007599Y014582D01*
X007429Y014652D01*
X006686Y014652D01*
X006517Y014582D01*
X006388Y014452D01*
X006318Y014283D01*
X006318Y014100D01*
X006388Y013931D01*
X006430Y013889D01*
X003463Y010922D01*
X003058Y010922D01*
X003024Y011003D01*
X002870Y011158D01*
X002667Y011242D01*
X002449Y011242D01*
X002246Y011158D01*
X002092Y011003D01*
X002008Y010801D01*
X002008Y010582D01*
X002092Y010380D01*
X002246Y010226D01*
X002328Y010192D01*
X002270Y010162D01*
X002200Y010111D01*
X002138Y010050D01*
X002088Y009980D01*
X002048Y009903D01*
X002021Y009821D01*
X002008Y009735D01*
X002008Y009692D01*
X002558Y009692D01*
X003108Y009692D01*
X003108Y009735D01*
X003094Y009821D01*
X003068Y009903D01*
X003028Y009980D01*
X002977Y010050D01*
X002916Y010111D01*
X002846Y010162D01*
X002788Y010192D01*
X002870Y010226D01*
X003024Y010380D01*
X003058Y010462D01*
X003653Y010462D01*
X006318Y013127D01*
X006318Y013100D01*
X006388Y012931D01*
X006430Y012889D01*
X003828Y010287D01*
X003828Y010097D01*
X003828Y008922D01*
X003058Y008922D01*
X003024Y009003D01*
X002870Y009158D01*
X002788Y009192D01*
X002846Y009221D01*
X002916Y009272D01*
X002977Y009334D01*
X003028Y009404D01*
X003068Y009481D01*
X003094Y009563D01*
X003108Y009649D01*
X003108Y009692D01*
X002558Y009692D01*
X002558Y009692D01*
X002558Y009692D01*
X002008Y009692D01*
X002008Y009649D01*
X002021Y009563D01*
X002048Y009481D01*
X002088Y009404D01*
X002138Y009334D01*
X002200Y009272D01*
X002270Y009221D01*
X002328Y009192D01*
X002246Y009158D01*
X002092Y009003D01*
X002008Y008801D01*
X002008Y008582D01*
X002092Y008380D01*
X002246Y008226D01*
X002449Y008142D01*
X002667Y008142D01*
X002870Y008226D01*
X003024Y008380D01*
X003058Y008462D01*
X004153Y008462D01*
X004288Y008597D01*
X004288Y010097D01*
X006318Y012127D01*
X006318Y012100D01*
X006388Y011931D01*
X006409Y011910D01*
X006235Y011910D01*
X006100Y011775D01*
X005250Y010925D01*
X005250Y010663D01*
X005142Y010556D01*
X005082Y010409D01*
X005082Y010251D01*
X005142Y010104D01*
X005254Y009992D01*
X005401Y009932D01*
X005559Y009932D01*
X005706Y009992D01*
X005818Y010104D01*
X005878Y010251D01*
X005878Y010409D01*
X005818Y010556D01*
X005710Y010663D01*
X005710Y010735D01*
X006360Y011385D01*
X006318Y011283D01*
X006318Y011100D01*
X006388Y010931D01*
X006517Y010802D01*
X006686Y010732D01*
X007429Y010732D01*
X007599Y010802D01*
X007728Y010931D01*
X007798Y011100D01*
X007798Y011283D01*
X007728Y011452D01*
X007703Y011478D01*
X009125Y012900D01*
X009260Y013035D01*
X009260Y013947D01*
X009275Y013962D01*
X009375Y013962D01*
X009388Y013931D01*
X009517Y013802D01*
X009686Y013732D01*
X010429Y013732D01*
X010599Y013802D01*
X010728Y013931D01*
X010798Y014100D01*
X010798Y014283D01*
X010728Y014452D01*
X010686Y014494D01*
X011867Y015676D01*
X011949Y015642D01*
X012167Y015642D01*
X012194Y015653D01*
X010828Y014287D01*
X010828Y009787D01*
X010611Y009570D01*
X010599Y009582D01*
X010429Y009652D01*
X009686Y009652D01*
X009517Y009582D01*
X009388Y009452D01*
X009318Y009283D01*
X009318Y009100D01*
X009388Y008931D01*
X009517Y008802D01*
X009686Y008732D01*
X010429Y008732D01*
X010599Y008802D01*
X010728Y008931D01*
X010798Y009100D01*
X010798Y009107D01*
X011153Y009462D01*
X011288Y009597D01*
X011288Y014097D01*
X012653Y015462D01*
X013123Y015462D01*
X013053Y015292D01*
X013053Y015091D01*
X013130Y014906D01*
X013272Y014764D01*
X013457Y014687D01*
X013440Y014684D01*
X013364Y014660D01*
X013293Y014624D01*
X013229Y014577D01*
X013173Y014521D01*
X013126Y014456D01*
X013090Y014386D01*
X013065Y014310D01*
X013053Y014232D01*
X013053Y014192D01*
X013558Y014192D01*
X014063Y014192D01*
X014063Y014232D01*
X014051Y014310D01*
X014026Y014386D01*
X013990Y014456D01*
X013943Y014521D01*
X013887Y014577D01*
X013823Y014624D01*
X013752Y014660D01*
X013676Y014684D01*
X013659Y014687D01*
X013844Y014764D01*
X013986Y014906D01*
X014063Y015091D01*
X014063Y015292D01*
X014014Y015411D01*
X014542Y014883D01*
X014508Y014801D01*
X014508Y014582D01*
X014574Y014422D01*
X014463Y014422D01*
X014013Y013972D01*
X014026Y013998D01*
X014051Y014074D01*
X014063Y014152D01*
X014063Y014192D01*
X013558Y014192D01*
X013558Y014192D01*
X013558Y014192D01*
X013053Y014192D01*
X013053Y014152D01*
X013065Y014074D01*
X013090Y013998D01*
X013126Y013927D01*
X013130Y013922D01*
X011963Y013922D01*
X011463Y013422D01*
X011328Y013287D01*
X011328Y008787D01*
X010963Y008422D01*
X008153Y008422D01*
X007686Y008889D01*
X007728Y008931D01*
X007798Y009100D01*
X007798Y009283D01*
X007728Y009452D01*
X007599Y009582D01*
X007429Y009652D01*
X006686Y009652D01*
X006528Y009586D01*
X006528Y009609D01*
X006468Y009756D01*
X006356Y009868D01*
X006209Y009928D01*
X006051Y009928D01*
X005904Y009868D01*
X005792Y009756D01*
X005732Y009609D01*
X005732Y009451D01*
X005734Y009445D01*
X004660Y008371D01*
X004660Y002170D01*
X004654Y002168D01*
X004542Y002056D01*
X004482Y001909D01*
X004482Y001751D01*
X004542Y001604D01*
X004654Y001492D01*
X004504Y001698D02*
X002940Y001698D01*
X002940Y001857D02*
X004482Y001857D01*
X004526Y002015D02*
X002940Y002015D01*
X002940Y002174D02*
X004660Y002174D01*
X004660Y002332D02*
X002940Y002332D01*
X002940Y002491D02*
X004660Y002491D01*
X004660Y002649D02*
X002940Y002649D01*
X002940Y002808D02*
X004660Y002808D01*
X004660Y002966D02*
X002940Y002966D01*
X002940Y003125D02*
X004660Y003125D01*
X004660Y003283D02*
X002940Y003283D01*
X002940Y003442D02*
X004660Y003442D01*
X004660Y003600D02*
X002940Y003600D01*
X002940Y003759D02*
X004660Y003759D01*
X004660Y003917D02*
X002940Y003917D01*
X002940Y004076D02*
X004660Y004076D01*
X004660Y004234D02*
X002940Y004234D01*
X002940Y004393D02*
X004660Y004393D01*
X004660Y004551D02*
X002940Y004551D01*
X002940Y004710D02*
X004660Y004710D01*
X004660Y004868D02*
X002940Y004868D01*
X002940Y005027D02*
X004660Y005027D01*
X004660Y005185D02*
X002940Y005185D01*
X002940Y005344D02*
X004660Y005344D01*
X004660Y005502D02*
X002940Y005502D01*
X002940Y005661D02*
X004660Y005661D01*
X004660Y005819D02*
X002940Y005819D01*
X002940Y005978D02*
X004660Y005978D01*
X004660Y006136D02*
X002940Y006136D01*
X002940Y006295D02*
X004660Y006295D01*
X004660Y006453D02*
X002940Y006453D01*
X002940Y006612D02*
X004660Y006612D01*
X004660Y006770D02*
X002924Y006770D01*
X002759Y006929D02*
X004660Y006929D01*
X004660Y007087D02*
X000440Y007087D01*
X000440Y007246D02*
X004660Y007246D01*
X004660Y007404D02*
X000440Y007404D01*
X000440Y007563D02*
X004660Y007563D01*
X004660Y007721D02*
X000440Y007721D01*
X000440Y007880D02*
X004660Y007880D01*
X004660Y008038D02*
X000440Y008038D01*
X000440Y008197D02*
X002316Y008197D01*
X002117Y008355D02*
X000440Y008355D01*
X000440Y008514D02*
X002036Y008514D01*
X002008Y008672D02*
X000440Y008672D01*
X000440Y008831D02*
X002020Y008831D01*
X002086Y008989D02*
X000440Y008989D01*
X000440Y009148D02*
X002236Y009148D01*
X002166Y009306D02*
X000440Y009306D01*
X000440Y009465D02*
X002056Y009465D01*
X002012Y009623D02*
X000440Y009623D01*
X000440Y009782D02*
X002015Y009782D01*
X002067Y009940D02*
X000440Y009940D01*
X000440Y010099D02*
X002187Y010099D01*
X002215Y010257D02*
X000440Y010257D01*
X000440Y010416D02*
X002077Y010416D01*
X002011Y010574D02*
X000440Y010574D01*
X000440Y010733D02*
X002008Y010733D01*
X002045Y010891D02*
X000440Y010891D01*
X000440Y011050D02*
X002138Y011050D01*
X002367Y011208D02*
X000440Y011208D01*
X000440Y011367D02*
X003907Y011367D01*
X004066Y011525D02*
X000440Y011525D01*
X000440Y011684D02*
X004224Y011684D01*
X004383Y011842D02*
X000440Y011842D01*
X000440Y012001D02*
X004541Y012001D01*
X004700Y012159D02*
X002209Y012159D01*
X002461Y012318D02*
X004858Y012318D01*
X005017Y012476D02*
X002787Y012476D01*
X002946Y012635D02*
X005175Y012635D01*
X005334Y012793D02*
X003104Y012793D01*
X003263Y012952D02*
X005492Y012952D01*
X005651Y013110D02*
X003421Y013110D01*
X003580Y013269D02*
X005809Y013269D01*
X005968Y013427D02*
X003738Y013427D01*
X003897Y013586D02*
X006126Y013586D01*
X006285Y013744D02*
X004055Y013744D01*
X004440Y013903D02*
X006417Y013903D01*
X006334Y014061D02*
X004542Y014061D01*
X004560Y014220D02*
X006318Y014220D01*
X006310Y014378D02*
X006357Y014378D01*
X006427Y014537D02*
X006472Y014537D01*
X006458Y014695D02*
X007828Y014695D01*
X007828Y014854D02*
X007650Y014854D01*
X007763Y015012D02*
X007828Y015012D01*
X007888Y014537D02*
X007644Y014537D01*
X007759Y014378D02*
X008046Y014378D01*
X008205Y014220D02*
X007798Y014220D01*
X007782Y014061D02*
X008363Y014061D01*
X008800Y013903D02*
X007699Y013903D01*
X007459Y013744D02*
X008800Y013744D01*
X008800Y013586D02*
X007589Y013586D01*
X007738Y013427D02*
X008800Y013427D01*
X008800Y013269D02*
X007798Y013269D01*
X007798Y013110D02*
X008685Y013110D01*
X008526Y012952D02*
X007736Y012952D01*
X007577Y012793D02*
X008368Y012793D01*
X008209Y012635D02*
X007471Y012635D01*
X007704Y012476D02*
X008051Y012476D01*
X007892Y012318D02*
X007784Y012318D01*
X008226Y012001D02*
X009359Y012001D01*
X009388Y011931D02*
X009517Y011802D01*
X009686Y011732D01*
X010429Y011732D01*
X010599Y011802D01*
X010728Y011931D01*
X010798Y012100D01*
X010798Y012283D01*
X010728Y012452D01*
X010599Y012582D01*
X010429Y012652D01*
X009686Y012652D01*
X009517Y012582D01*
X009388Y012452D01*
X009318Y012283D01*
X009318Y012100D01*
X009388Y011931D01*
X009477Y011842D02*
X008067Y011842D01*
X007909Y011684D02*
X010828Y011684D01*
X010828Y011842D02*
X010639Y011842D01*
X010757Y012001D02*
X010828Y012001D01*
X010828Y012159D02*
X010798Y012159D01*
X010784Y012318D02*
X010828Y012318D01*
X010828Y012476D02*
X010704Y012476D01*
X010828Y012635D02*
X010471Y012635D01*
X010429Y012732D02*
X010599Y012802D01*
X010728Y012931D01*
X010798Y013100D01*
X010798Y013283D01*
X010728Y013452D01*
X010599Y013582D01*
X010429Y013652D01*
X009686Y013652D01*
X009517Y013582D01*
X009388Y013452D01*
X009318Y013283D01*
X009318Y013100D01*
X009388Y012931D01*
X009517Y012802D01*
X009686Y012732D01*
X010429Y012732D01*
X010577Y012793D02*
X010828Y012793D01*
X010828Y012952D02*
X010736Y012952D01*
X010798Y013110D02*
X010828Y013110D01*
X010828Y013269D02*
X010798Y013269D01*
X010828Y013427D02*
X010738Y013427D01*
X010828Y013586D02*
X010589Y013586D01*
X010459Y013744D02*
X010828Y013744D01*
X010828Y013903D02*
X010699Y013903D01*
X010782Y014061D02*
X010828Y014061D01*
X010828Y014220D02*
X010798Y014220D01*
X010759Y014378D02*
X010919Y014378D01*
X011077Y014537D02*
X010728Y014537D01*
X010886Y014695D02*
X011236Y014695D01*
X011394Y014854D02*
X011045Y014854D01*
X011203Y015012D02*
X011553Y015012D01*
X011711Y015171D02*
X011362Y015171D01*
X011520Y015329D02*
X011870Y015329D01*
X012028Y015488D02*
X011679Y015488D01*
X011837Y015646D02*
X011938Y015646D01*
X012178Y015646D02*
X012187Y015646D01*
X012520Y015329D02*
X013068Y015329D01*
X013053Y015171D02*
X012362Y015171D01*
X012203Y015012D02*
X013086Y015012D01*
X013182Y014854D02*
X012045Y014854D01*
X011886Y014695D02*
X013438Y014695D01*
X013188Y014537D02*
X011728Y014537D01*
X011569Y014378D02*
X013087Y014378D01*
X013053Y014220D02*
X011411Y014220D01*
X011288Y014061D02*
X013069Y014061D01*
X013678Y014695D02*
X014508Y014695D01*
X014527Y014537D02*
X013927Y014537D01*
X014028Y014378D02*
X014419Y014378D01*
X014260Y014220D02*
X014063Y014220D01*
X014046Y014061D02*
X014102Y014061D01*
X014435Y013744D02*
X014508Y013744D01*
X014508Y013586D02*
X014277Y013586D01*
X014572Y013427D02*
X012118Y013427D01*
X011960Y013269D02*
X014703Y013269D01*
X014698Y013110D02*
X011801Y013110D01*
X011788Y012952D02*
X014570Y012952D01*
X014508Y012793D02*
X011788Y012793D01*
X011788Y012635D02*
X014508Y012635D01*
X014552Y012476D02*
X011788Y012476D01*
X011788Y012318D02*
X014506Y012318D01*
X014348Y012159D02*
X011788Y012159D01*
X011788Y012001D02*
X014189Y012001D01*
X014031Y011842D02*
X011788Y011842D01*
X011788Y011684D02*
X013872Y011684D01*
X013714Y011525D02*
X011788Y011525D01*
X011788Y011367D02*
X013555Y011367D01*
X013397Y011208D02*
X011788Y011208D01*
X011788Y011050D02*
X013238Y011050D01*
X013080Y010891D02*
X011788Y010891D01*
X011788Y010733D02*
X012921Y010733D01*
X012860Y010574D02*
X011788Y010574D01*
X011788Y010416D02*
X012860Y010416D01*
X012860Y010257D02*
X011788Y010257D01*
X011788Y010099D02*
X012860Y010099D01*
X012860Y009940D02*
X011788Y009940D01*
X011788Y009782D02*
X012860Y009782D01*
X012860Y009623D02*
X011788Y009623D01*
X011788Y009465D02*
X012860Y009465D01*
X012860Y009306D02*
X011788Y009306D01*
X011788Y009148D02*
X012860Y009148D01*
X012860Y008989D02*
X011788Y008989D01*
X011788Y008831D02*
X012860Y008831D01*
X012860Y008672D02*
X011788Y008672D01*
X011705Y008514D02*
X012860Y008514D01*
X012860Y008355D02*
X011546Y008355D01*
X011388Y008197D02*
X012860Y008197D01*
X012860Y008038D02*
X011229Y008038D01*
X011054Y008514D02*
X008062Y008514D01*
X007903Y008672D02*
X011213Y008672D01*
X011328Y008831D02*
X010627Y008831D01*
X010752Y008989D02*
X011328Y008989D01*
X011328Y009148D02*
X010839Y009148D01*
X010997Y009306D02*
X011328Y009306D01*
X011328Y009465D02*
X011156Y009465D01*
X011288Y009623D02*
X011328Y009623D01*
X011328Y009782D02*
X011288Y009782D01*
X011288Y009940D02*
X011328Y009940D01*
X011328Y010099D02*
X011288Y010099D01*
X011288Y010257D02*
X011328Y010257D01*
X011328Y010416D02*
X011288Y010416D01*
X011288Y010574D02*
X011328Y010574D01*
X011328Y010733D02*
X011288Y010733D01*
X011288Y010891D02*
X011328Y010891D01*
X011328Y011050D02*
X011288Y011050D01*
X011288Y011208D02*
X011328Y011208D01*
X011328Y011367D02*
X011288Y011367D01*
X011288Y011525D02*
X011328Y011525D01*
X011328Y011684D02*
X011288Y011684D01*
X011288Y011842D02*
X011328Y011842D01*
X011328Y012001D02*
X011288Y012001D01*
X011288Y012159D02*
X011328Y012159D01*
X011328Y012318D02*
X011288Y012318D01*
X011288Y012476D02*
X011328Y012476D01*
X011328Y012635D02*
X011288Y012635D01*
X011288Y012793D02*
X011328Y012793D01*
X011328Y012952D02*
X011288Y012952D01*
X011288Y013110D02*
X011328Y013110D01*
X011328Y013269D02*
X011288Y013269D01*
X011288Y013427D02*
X011468Y013427D01*
X011626Y013586D02*
X011288Y013586D01*
X011288Y013744D02*
X011785Y013744D01*
X011943Y013903D02*
X011288Y013903D01*
X010429Y011652D02*
X010599Y011582D01*
X010728Y011452D01*
X010798Y011283D01*
X010798Y011100D01*
X010728Y010931D01*
X010599Y010802D01*
X010429Y010732D01*
X009686Y010732D01*
X009517Y010802D01*
X009388Y010931D01*
X009318Y011100D01*
X009318Y011283D01*
X009388Y011452D01*
X009517Y011582D01*
X009686Y011652D01*
X010429Y011652D01*
X010655Y011525D02*
X010828Y011525D01*
X010828Y011367D02*
X010763Y011367D01*
X010798Y011208D02*
X010828Y011208D01*
X010828Y011050D02*
X010777Y011050D01*
X010828Y010891D02*
X010688Y010891D01*
X010828Y010733D02*
X010431Y010733D01*
X010429Y010652D02*
X010599Y010582D01*
X010728Y010452D01*
X010798Y010283D01*
X010798Y010100D01*
X010728Y009931D01*
X010599Y009802D01*
X010429Y009732D01*
X009686Y009732D01*
X009517Y009802D01*
X009388Y009931D01*
X009318Y010100D01*
X009318Y010283D01*
X009388Y010452D01*
X009517Y010582D01*
X009686Y010652D01*
X010429Y010652D01*
X010606Y010574D02*
X010828Y010574D01*
X010828Y010416D02*
X010743Y010416D01*
X010798Y010257D02*
X010828Y010257D01*
X010828Y010099D02*
X010797Y010099D01*
X010828Y009940D02*
X010732Y009940D01*
X010822Y009782D02*
X010549Y009782D01*
X010499Y009623D02*
X010664Y009623D01*
X009617Y009623D02*
X007499Y009623D01*
X007429Y009732D02*
X007599Y009802D01*
X007728Y009931D01*
X007798Y010100D01*
X007798Y010283D01*
X007728Y010452D01*
X007599Y010582D01*
X007429Y010652D01*
X006686Y010652D01*
X006517Y010582D01*
X006388Y010452D01*
X006318Y010283D01*
X006318Y010100D01*
X006388Y009931D01*
X006517Y009802D01*
X006686Y009732D01*
X007429Y009732D01*
X007549Y009782D02*
X009566Y009782D01*
X009384Y009940D02*
X007732Y009940D01*
X007797Y010099D02*
X009319Y010099D01*
X009318Y010257D02*
X007798Y010257D01*
X007743Y010416D02*
X009373Y010416D01*
X009510Y010574D02*
X007606Y010574D01*
X007431Y010733D02*
X009685Y010733D01*
X009428Y010891D02*
X007688Y010891D01*
X007777Y011050D02*
X009339Y011050D01*
X009318Y011208D02*
X007798Y011208D01*
X007763Y011367D02*
X009352Y011367D01*
X009461Y011525D02*
X007750Y011525D01*
X008384Y012159D02*
X009318Y012159D01*
X009332Y012318D02*
X008543Y012318D01*
X008701Y012476D02*
X009412Y012476D01*
X009539Y012793D02*
X009018Y012793D01*
X008860Y012635D02*
X009645Y012635D01*
X009380Y012952D02*
X009177Y012952D01*
X009260Y013110D02*
X009318Y013110D01*
X009318Y013269D02*
X009260Y013269D01*
X009260Y013427D02*
X009377Y013427D01*
X009260Y013586D02*
X009526Y013586D01*
X009657Y013744D02*
X009260Y013744D01*
X009260Y013903D02*
X009417Y013903D01*
X009378Y015963D02*
X008852Y015963D01*
X008788Y016122D02*
X009323Y016122D01*
X009326Y016280D02*
X008788Y016280D01*
X008788Y016439D02*
X009389Y016439D01*
X009388Y016931D02*
X009318Y017100D01*
X009318Y017127D01*
X008788Y016597D01*
X009264Y017073D02*
X009329Y017073D01*
X009898Y017707D02*
X012247Y017707D01*
X012406Y017865D02*
X010662Y017865D01*
X010766Y018024D02*
X014612Y018024D01*
X014804Y018182D02*
X010798Y018182D01*
X010774Y018341D02*
X014631Y018341D01*
X014542Y018499D02*
X010681Y018499D01*
X010613Y018816D02*
X014514Y018816D01*
X014508Y018658D02*
X009849Y018658D01*
X010746Y018975D02*
X014580Y018975D01*
X014721Y019133D02*
X010798Y019133D01*
X010795Y019292D02*
X010933Y019292D01*
X011183Y019292D02*
X014680Y019292D01*
X014563Y019450D02*
X011407Y019450D01*
X011476Y019609D02*
X014508Y019609D01*
X014508Y019767D02*
X012411Y019767D01*
X012543Y019926D02*
X014559Y019926D01*
X014672Y020084D02*
X012608Y020084D01*
X012608Y020243D02*
X014729Y020243D01*
X014583Y020401D02*
X012567Y020401D01*
X012468Y020560D02*
X014517Y020560D01*
X014508Y020718D02*
X012288Y020718D01*
X012288Y020877D02*
X014539Y020877D01*
X014623Y021035D02*
X012288Y021035D01*
X012288Y021194D02*
X014824Y021194D01*
X014620Y021352D02*
X012432Y021352D01*
X012529Y021511D02*
X014538Y021511D01*
X014508Y021669D02*
X012563Y021669D01*
X012548Y021828D02*
X014519Y021828D01*
X014585Y021986D02*
X012478Y021986D01*
X012383Y022303D02*
X014669Y022303D01*
X014733Y022145D02*
X012285Y022145D01*
X012509Y022462D02*
X014558Y022462D01*
X014508Y022620D02*
X012563Y022620D01*
X012563Y022779D02*
X014508Y022779D01*
X014564Y022937D02*
X012503Y022937D01*
X012368Y023096D02*
X014684Y023096D01*
X014828Y023254D02*
X012288Y023254D01*
X012288Y023413D02*
X014828Y023413D01*
X014828Y023571D02*
X012288Y023571D01*
X012288Y023730D02*
X012478Y023730D01*
X012478Y023717D02*
X012583Y023612D01*
X013333Y023612D01*
X013438Y023717D01*
X013438Y024166D01*
X013333Y024272D01*
X012583Y024272D01*
X012478Y024166D01*
X012478Y023717D01*
X012478Y023888D02*
X012187Y023888D01*
X012028Y024047D02*
X012478Y024047D01*
X012517Y024205D02*
X011870Y024205D01*
X011711Y024364D02*
X016420Y024364D01*
X016420Y024522D02*
X011506Y024522D01*
X011315Y024681D02*
X016420Y024681D01*
X016420Y024839D02*
X001449Y024839D01*
X001476Y024681D02*
X005806Y024681D01*
X006038Y024681D02*
X006078Y024681D01*
X006078Y024522D02*
X006038Y024522D01*
X006038Y024364D02*
X006078Y024364D01*
X006038Y024205D02*
X001288Y024205D01*
X001288Y024047D02*
X003199Y024047D01*
X003091Y023888D02*
X001288Y023888D01*
X001288Y023730D02*
X003053Y023730D01*
X003066Y023571D02*
X001288Y023571D01*
X001288Y023413D02*
X003137Y023413D01*
X003305Y023254D02*
X001288Y023254D01*
X001288Y023096D02*
X001684Y023096D01*
X001566Y022937D02*
X001288Y022937D01*
X001288Y022779D02*
X001515Y022779D01*
X001512Y022620D02*
X001288Y022620D01*
X001288Y022462D02*
X001558Y022462D01*
X001669Y022303D02*
X001288Y022303D01*
X001288Y022145D02*
X001733Y022145D01*
X001585Y021986D02*
X001288Y021986D01*
X001288Y021828D02*
X001519Y021828D01*
X001508Y021669D02*
X001288Y021669D01*
X001288Y021511D02*
X001538Y021511D01*
X001620Y021352D02*
X001288Y021352D01*
X001288Y021194D02*
X001824Y021194D01*
X001623Y021035D02*
X001288Y021035D01*
X001288Y020877D02*
X001539Y020877D01*
X001508Y020718D02*
X001288Y020718D01*
X001288Y020560D02*
X001517Y020560D01*
X001583Y020401D02*
X001288Y020401D01*
X001288Y020243D02*
X001729Y020243D01*
X001672Y020084D02*
X001288Y020084D01*
X001288Y019926D02*
X001559Y019926D01*
X001508Y019767D02*
X001288Y019767D01*
X001288Y019609D02*
X001508Y019609D01*
X001563Y019450D02*
X001288Y019450D01*
X001288Y019292D02*
X001680Y019292D01*
X001721Y019133D02*
X001288Y019133D01*
X001288Y018975D02*
X001580Y018975D01*
X001514Y018816D02*
X001288Y018816D01*
X001288Y018658D02*
X001508Y018658D01*
X001542Y018499D02*
X001288Y018499D01*
X001288Y018341D02*
X001631Y018341D01*
X001804Y018182D02*
X001288Y018182D01*
X001288Y018024D02*
X001612Y018024D01*
X001534Y017865D02*
X001288Y017865D01*
X001288Y017707D02*
X001508Y017707D01*
X001522Y017548D02*
X001288Y017548D01*
X001288Y017390D02*
X001588Y017390D01*
X001741Y017231D02*
X001288Y017231D01*
X001288Y017073D02*
X001661Y017073D01*
X001555Y016914D02*
X001288Y016914D01*
X001320Y016756D02*
X001508Y016756D01*
X001508Y016597D02*
X001478Y016597D01*
X001303Y016122D02*
X000440Y016122D01*
X000440Y016280D02*
X001144Y016280D01*
X001461Y015963D02*
X000440Y015963D01*
X000440Y015805D02*
X001509Y015805D01*
X001508Y015646D02*
X000440Y015646D01*
X000440Y015488D02*
X001547Y015488D01*
X001643Y015329D02*
X000440Y015329D01*
X000440Y015171D02*
X001776Y015171D01*
X001600Y015012D02*
X000440Y015012D01*
X000440Y014854D02*
X001530Y014854D01*
X001508Y014695D02*
X000440Y014695D01*
X000440Y014537D02*
X001527Y014537D01*
X001594Y014378D02*
X000440Y014378D01*
X000440Y014220D02*
X001761Y014220D01*
X001649Y014061D02*
X000440Y014061D01*
X000440Y013903D02*
X001550Y013903D01*
X001508Y013744D02*
X000440Y013744D01*
X000440Y013586D02*
X001508Y013586D01*
X001572Y013427D02*
X000440Y013427D01*
X000440Y013269D02*
X001703Y013269D01*
X001698Y013110D02*
X000440Y013110D01*
X000440Y012952D02*
X001570Y012952D01*
X001508Y012793D02*
X000440Y012793D01*
X000440Y012635D02*
X001508Y012635D01*
X001552Y012476D02*
X000440Y012476D01*
X000440Y012318D02*
X001654Y012318D01*
X001907Y012159D02*
X000440Y012159D01*
X002608Y014695D02*
X002736Y014695D01*
X002586Y014854D02*
X002894Y014854D01*
X002703Y015012D02*
X005812Y015012D01*
X005806Y014378D02*
X004509Y014378D01*
X003496Y015805D02*
X006515Y015805D01*
X006375Y015963D02*
X003654Y015963D01*
X003813Y016122D02*
X006318Y016122D01*
X006318Y016280D02*
X003971Y016280D01*
X004130Y016439D02*
X006382Y016439D01*
X006705Y015646D02*
X003337Y015646D01*
X003179Y015488D02*
X006424Y015488D01*
X006339Y015329D02*
X003020Y015329D01*
X002862Y015171D02*
X006318Y015171D01*
X006303Y015012D02*
X006353Y015012D01*
X006424Y014854D02*
X006466Y014854D01*
X007058Y014854D02*
X007058Y014854D01*
X007058Y014732D02*
X007058Y015192D01*
X007058Y015192D01*
X007058Y014732D01*
X007058Y015012D02*
X007058Y015012D01*
X007058Y015171D02*
X007058Y015171D01*
X007058Y015329D02*
X007058Y015329D01*
X007058Y015488D02*
X007058Y015488D01*
X007058Y015646D02*
X007058Y015646D01*
X006318Y013110D02*
X006301Y013110D01*
X006380Y012952D02*
X006143Y012952D01*
X005984Y012793D02*
X006334Y012793D01*
X006175Y012635D02*
X005826Y012635D01*
X005667Y012476D02*
X006017Y012476D01*
X005858Y012318D02*
X005509Y012318D01*
X005350Y012159D02*
X005700Y012159D01*
X005541Y012001D02*
X005192Y012001D01*
X005033Y011842D02*
X005383Y011842D01*
X005224Y011684D02*
X004875Y011684D01*
X004716Y011525D02*
X005066Y011525D01*
X004907Y011367D02*
X004558Y011367D01*
X004399Y011208D02*
X004749Y011208D01*
X004590Y011050D02*
X004241Y011050D01*
X004082Y010891D02*
X004432Y010891D01*
X004273Y010733D02*
X003924Y010733D01*
X003765Y010574D02*
X004115Y010574D01*
X003956Y010416D02*
X003039Y010416D01*
X002901Y010257D02*
X003828Y010257D01*
X003828Y010099D02*
X002929Y010099D01*
X003049Y009940D02*
X003828Y009940D01*
X003828Y009782D02*
X003101Y009782D01*
X003104Y009623D02*
X003828Y009623D01*
X003828Y009465D02*
X003059Y009465D01*
X002950Y009306D02*
X003828Y009306D01*
X003828Y009148D02*
X002880Y009148D01*
X003030Y008989D02*
X003828Y008989D01*
X004205Y008514D02*
X004802Y008514D01*
X004660Y008355D02*
X002999Y008355D01*
X002799Y008197D02*
X004660Y008197D01*
X004961Y008672D02*
X004288Y008672D01*
X004288Y008831D02*
X005119Y008831D01*
X005278Y008989D02*
X004288Y008989D01*
X004288Y009148D02*
X005436Y009148D01*
X005595Y009306D02*
X004288Y009306D01*
X004288Y009465D02*
X005732Y009465D01*
X005738Y009623D02*
X004288Y009623D01*
X004288Y009782D02*
X005819Y009782D01*
X005579Y009940D02*
X006384Y009940D01*
X006441Y009782D02*
X006566Y009782D01*
X006522Y009623D02*
X006617Y009623D01*
X006319Y010099D02*
X005812Y010099D01*
X005878Y010257D02*
X006318Y010257D01*
X006373Y010416D02*
X005875Y010416D01*
X005799Y010574D02*
X006510Y010574D01*
X006685Y010733D02*
X005710Y010733D01*
X005866Y010891D02*
X006428Y010891D01*
X006339Y011050D02*
X006025Y011050D01*
X006183Y011208D02*
X006318Y011208D01*
X006342Y011367D02*
X006352Y011367D01*
X006167Y011842D02*
X006033Y011842D01*
X006008Y011684D02*
X005875Y011684D01*
X005850Y011525D02*
X005716Y011525D01*
X005691Y011367D02*
X005558Y011367D01*
X005533Y011208D02*
X005399Y011208D01*
X005374Y011050D02*
X005241Y011050D01*
X005250Y010891D02*
X005082Y010891D01*
X004924Y010733D02*
X005250Y010733D01*
X005161Y010574D02*
X004765Y010574D01*
X004607Y010416D02*
X005085Y010416D01*
X005082Y010257D02*
X004448Y010257D01*
X004290Y010099D02*
X005148Y010099D01*
X005381Y009940D02*
X004288Y009940D01*
X003590Y011050D02*
X002978Y011050D01*
X002749Y011208D02*
X003749Y011208D01*
X005425Y008514D02*
X007411Y008514D01*
X007252Y008672D02*
X005583Y008672D01*
X005742Y008831D02*
X006489Y008831D01*
X006364Y008989D02*
X005900Y008989D01*
X006247Y009148D02*
X006318Y009148D01*
X005266Y008355D02*
X007569Y008355D01*
X007728Y008197D02*
X005108Y008197D01*
X005100Y008038D02*
X007886Y008038D01*
X007745Y008831D02*
X009489Y008831D01*
X009364Y008989D02*
X007752Y008989D01*
X007798Y009148D02*
X009318Y009148D01*
X009327Y009306D02*
X007789Y009306D01*
X007716Y009465D02*
X009400Y009465D01*
X006359Y012001D02*
X006192Y012001D01*
X005100Y007880D02*
X012860Y007880D01*
X012860Y007721D02*
X005100Y007721D01*
X005100Y007563D02*
X012860Y007563D01*
X012860Y007404D02*
X005100Y007404D01*
X005100Y007246D02*
X012860Y007246D01*
X012860Y007087D02*
X005100Y007087D01*
X005100Y006929D02*
X012860Y006929D01*
X012860Y006770D02*
X005100Y006770D01*
X005100Y006612D02*
X012860Y006612D01*
X012860Y006453D02*
X005100Y006453D01*
X005100Y006295D02*
X012860Y006295D01*
X012860Y006136D02*
X005100Y006136D01*
X005100Y005978D02*
X012860Y005978D01*
X012860Y005819D02*
X005100Y005819D01*
X005100Y005661D02*
X012860Y005661D01*
X012860Y005502D02*
X005100Y005502D01*
X005100Y005344D02*
X012860Y005344D01*
X012860Y005185D02*
X005100Y005185D01*
X005100Y005027D02*
X012860Y005027D01*
X012860Y004868D02*
X005100Y004868D01*
X005100Y004710D02*
X012860Y004710D01*
X012860Y004551D02*
X005100Y004551D01*
X005100Y004393D02*
X012860Y004393D01*
X012821Y004234D02*
X005100Y004234D01*
X005100Y004076D02*
X012709Y004076D01*
X012682Y003917D02*
X005100Y003917D01*
X005100Y003759D02*
X012720Y003759D01*
X012847Y003600D02*
X005100Y003600D01*
X005100Y003442D02*
X014381Y003442D01*
X014302Y003600D02*
X013313Y003600D01*
X013440Y003759D02*
X014290Y003759D01*
X014132Y003917D02*
X013478Y003917D01*
X013451Y004076D02*
X013973Y004076D01*
X013815Y004234D02*
X013339Y004234D01*
X013300Y004393D02*
X013656Y004393D01*
X013498Y004551D02*
X013300Y004551D01*
X013300Y004710D02*
X013460Y004710D01*
X013460Y004868D02*
X013300Y004868D01*
X013300Y005027D02*
X013460Y005027D01*
X013460Y005185D02*
X013300Y005185D01*
X013300Y005344D02*
X013460Y005344D01*
X013460Y005502D02*
X013300Y005502D01*
X013300Y005661D02*
X013460Y005661D01*
X013460Y005819D02*
X013300Y005819D01*
X013300Y005978D02*
X013460Y005978D01*
X013460Y006136D02*
X013300Y006136D01*
X013300Y006295D02*
X013460Y006295D01*
X013460Y006453D02*
X013300Y006453D01*
X013300Y006612D02*
X013460Y006612D01*
X013460Y006770D02*
X013300Y006770D01*
X013300Y006929D02*
X013460Y006929D01*
X013460Y007087D02*
X013300Y007087D01*
X013300Y007246D02*
X013460Y007246D01*
X013460Y007404D02*
X013300Y007404D01*
X013300Y007563D02*
X013460Y007563D01*
X013460Y007721D02*
X013300Y007721D01*
X013300Y007880D02*
X013460Y007880D01*
X013460Y008038D02*
X013300Y008038D01*
X013300Y008197D02*
X013460Y008197D01*
X013460Y008355D02*
X013300Y008355D01*
X013300Y008514D02*
X013460Y008514D01*
X013460Y008672D02*
X013300Y008672D01*
X013300Y008831D02*
X013460Y008831D01*
X013460Y008989D02*
X013300Y008989D01*
X013300Y009148D02*
X013460Y009148D01*
X013460Y009306D02*
X013300Y009306D01*
X013300Y009465D02*
X013460Y009465D01*
X013460Y009623D02*
X013300Y009623D01*
X013300Y009782D02*
X013460Y009782D01*
X013460Y009940D02*
X013300Y009940D01*
X013300Y010099D02*
X013460Y010099D01*
X013460Y010257D02*
X013300Y010257D01*
X013300Y010416D02*
X013604Y010416D01*
X013763Y010574D02*
X013385Y010574D01*
X013544Y010733D02*
X013921Y010733D01*
X014080Y010891D02*
X013702Y010891D01*
X013861Y011050D02*
X014238Y011050D01*
X014397Y011208D02*
X014019Y011208D01*
X014178Y011367D02*
X014555Y011367D01*
X014532Y011525D02*
X014336Y011525D01*
X014495Y011684D02*
X014508Y011684D01*
X015327Y011208D02*
X016420Y011208D01*
X016420Y011050D02*
X015478Y011050D01*
X015571Y010891D02*
X016420Y010891D01*
X016420Y010733D02*
X015608Y010733D01*
X015604Y010574D02*
X016420Y010574D01*
X016420Y010416D02*
X015539Y010416D01*
X015401Y010257D02*
X016420Y010257D01*
X016420Y010099D02*
X014910Y010099D01*
X014751Y009940D02*
X016420Y009940D01*
X016420Y009782D02*
X014593Y009782D01*
X014434Y009623D02*
X016420Y009623D01*
X016420Y009465D02*
X014400Y009465D01*
X014400Y009306D02*
X016420Y009306D01*
X016420Y009148D02*
X014400Y009148D01*
X014400Y008989D02*
X016420Y008989D01*
X016420Y008831D02*
X014400Y008831D01*
X014400Y008672D02*
X016420Y008672D01*
X016420Y008514D02*
X014400Y008514D01*
X014400Y008355D02*
X016420Y008355D01*
X016420Y008197D02*
X014400Y008197D01*
X014400Y008038D02*
X016420Y008038D01*
X016420Y007880D02*
X014400Y007880D01*
X014400Y006770D02*
X016420Y006770D01*
X016420Y006612D02*
X014400Y006612D01*
X014400Y006453D02*
X016420Y006453D01*
X016420Y006295D02*
X014400Y006295D01*
X014400Y006136D02*
X016420Y006136D01*
X016420Y005978D02*
X014400Y005978D01*
X014400Y005819D02*
X016420Y005819D01*
X016420Y005661D02*
X016203Y005661D01*
X016225Y005502D02*
X016420Y005502D01*
X016420Y005344D02*
X015315Y005344D01*
X015315Y005206D02*
X016225Y005206D01*
X016225Y004952D01*
X016212Y004906D01*
X016189Y004865D01*
X016155Y004832D01*
X016114Y004808D01*
X016068Y004796D01*
X015315Y004796D01*
X015315Y005206D01*
X015315Y005185D02*
X015175Y005185D01*
X015175Y005027D02*
X015315Y005027D01*
X015315Y004868D02*
X015175Y004868D01*
X015175Y005502D02*
X015315Y005502D01*
X015315Y005661D02*
X015175Y005661D01*
X015315Y006796D02*
X016068Y006796D01*
X016114Y006808D01*
X016155Y006832D01*
X016189Y006865D01*
X016212Y006906D01*
X016225Y006952D01*
X016225Y007206D01*
X015315Y007206D01*
X015315Y006796D01*
X015315Y006929D02*
X015175Y006929D01*
X015175Y007087D02*
X015315Y007087D01*
X015315Y007246D02*
X016420Y007246D01*
X016420Y007404D02*
X016225Y007404D01*
X016225Y007563D02*
X016420Y007563D01*
X016420Y007721D02*
X016153Y007721D01*
X016225Y007087D02*
X016420Y007087D01*
X016420Y006929D02*
X016218Y006929D01*
X015315Y007404D02*
X015175Y007404D01*
X015175Y007563D02*
X015315Y007563D01*
X015315Y007721D02*
X015175Y007721D01*
X016225Y005185D02*
X016420Y005185D01*
X016420Y005027D02*
X016225Y005027D01*
X016190Y004868D02*
X016420Y004868D01*
X016420Y004710D02*
X014462Y004710D01*
X014620Y004551D02*
X016420Y004551D01*
X016420Y004393D02*
X014779Y004393D01*
X014937Y004234D02*
X016420Y004234D01*
X016420Y004076D02*
X015096Y004076D01*
X015254Y003917D02*
X016420Y003917D01*
X016420Y003759D02*
X015400Y003759D01*
X015400Y003600D02*
X016420Y003600D01*
X016420Y003442D02*
X015456Y003442D01*
X015549Y003283D02*
X016420Y003283D01*
X016420Y003125D02*
X015560Y003125D01*
X015503Y002966D02*
X016420Y002966D01*
X016420Y002808D02*
X015274Y002808D01*
X015086Y002808D02*
X005100Y002808D01*
X005100Y002966D02*
X014857Y002966D01*
X014800Y003125D02*
X005100Y003125D01*
X005100Y003283D02*
X014811Y003283D01*
X016420Y002649D02*
X005100Y002649D01*
X005100Y002491D02*
X016420Y002491D01*
X016420Y002332D02*
X005100Y002332D01*
X005100Y002174D02*
X016420Y002174D01*
X016420Y002015D02*
X005234Y002015D01*
X005278Y001857D02*
X016420Y001857D01*
X016420Y001698D02*
X005256Y001698D01*
X005153Y001540D02*
X016420Y001540D01*
X016420Y011367D02*
X015510Y011367D01*
X015584Y011525D02*
X016420Y011525D01*
X016420Y011684D02*
X015608Y011684D01*
X015591Y011842D02*
X016420Y011842D01*
X016420Y012001D02*
X015525Y012001D01*
X015367Y012159D02*
X016420Y012159D01*
X016420Y012318D02*
X015461Y012318D01*
X015564Y012476D02*
X016420Y012476D01*
X016420Y012635D02*
X015608Y012635D01*
X015608Y012793D02*
X016420Y012793D01*
X016420Y012952D02*
X015546Y012952D01*
X015418Y013110D02*
X016420Y013110D01*
X016420Y013269D02*
X015412Y013269D01*
X015544Y013427D02*
X016420Y013427D01*
X016420Y013586D02*
X015608Y013586D01*
X015608Y013744D02*
X016420Y013744D01*
X016420Y013903D02*
X015566Y013903D01*
X016252Y014061D02*
X016420Y014061D01*
X016420Y014220D02*
X016288Y014220D01*
X016288Y014378D02*
X016420Y014378D01*
X016420Y014537D02*
X016288Y014537D01*
X016288Y014695D02*
X016420Y014695D01*
X016420Y014854D02*
X016288Y014854D01*
X016288Y015012D02*
X016420Y015012D01*
X016420Y015171D02*
X016288Y015171D01*
X016246Y015329D02*
X016420Y015329D01*
X016420Y015488D02*
X016088Y015488D01*
X015929Y015646D02*
X016420Y015646D01*
X016420Y015805D02*
X015771Y015805D01*
X015541Y015963D02*
X016420Y015963D01*
X016420Y016122D02*
X015406Y016122D01*
X015424Y016280D02*
X016420Y016280D01*
X016420Y016439D02*
X015548Y016439D01*
X015608Y016597D02*
X016420Y016597D01*
X016420Y016756D02*
X015608Y016756D01*
X015561Y016914D02*
X016420Y016914D01*
X016420Y017073D02*
X015455Y017073D01*
X015375Y017231D02*
X016420Y017231D01*
X016420Y017390D02*
X015528Y017390D01*
X015594Y017548D02*
X016420Y017548D01*
X016420Y017707D02*
X015608Y017707D01*
X015582Y017865D02*
X016420Y017865D01*
X016420Y018024D02*
X015504Y018024D01*
X015312Y018182D02*
X016420Y018182D01*
X016420Y018341D02*
X015484Y018341D01*
X015573Y018499D02*
X016420Y018499D01*
X016420Y018658D02*
X015608Y018658D01*
X015602Y018816D02*
X016420Y018816D01*
X016420Y018975D02*
X015536Y018975D01*
X015395Y019133D02*
X016420Y019133D01*
X016420Y019292D02*
X015435Y019292D01*
X015553Y019450D02*
X016420Y019450D01*
X016420Y019609D02*
X015608Y019609D01*
X015608Y019767D02*
X016420Y019767D01*
X016420Y019926D02*
X015556Y019926D01*
X015444Y020084D02*
X016420Y020084D01*
X016420Y020243D02*
X015386Y020243D01*
X015533Y020401D02*
X016420Y020401D01*
X016420Y020560D02*
X015598Y020560D01*
X015608Y020718D02*
X016420Y020718D01*
X016420Y020877D02*
X015577Y020877D01*
X015493Y021035D02*
X016420Y021035D01*
X016420Y021194D02*
X015292Y021194D01*
X015496Y021352D02*
X016420Y021352D01*
X016420Y021511D02*
X015578Y021511D01*
X015608Y021669D02*
X016420Y021669D01*
X016420Y021828D02*
X015597Y021828D01*
X015531Y021986D02*
X016420Y021986D01*
X016420Y022145D02*
X015383Y022145D01*
X015447Y022303D02*
X016420Y022303D01*
X016420Y022462D02*
X015558Y022462D01*
X015608Y022620D02*
X016420Y022620D01*
X016420Y022779D02*
X015608Y022779D01*
X015552Y022937D02*
X016420Y022937D01*
X016420Y023096D02*
X015432Y023096D01*
X015288Y023254D02*
X016420Y023254D01*
X016420Y023413D02*
X015288Y023413D01*
X015288Y023571D02*
X016420Y023571D01*
X016420Y023730D02*
X015638Y023730D01*
X015638Y023888D02*
X016420Y023888D01*
X016420Y024047D02*
X015638Y024047D01*
X015599Y024205D02*
X016420Y024205D01*
X016420Y024998D02*
X001343Y024998D01*
X001440Y024522D02*
X005618Y024522D01*
X005535Y024364D02*
X001321Y024364D01*
X000828Y024205D02*
X000440Y024205D01*
X000440Y024047D02*
X000828Y024047D01*
X000828Y023888D02*
X000440Y023888D01*
X000440Y023730D02*
X000828Y023730D01*
X000828Y023571D02*
X000440Y023571D01*
X000440Y023413D02*
X000828Y023413D01*
X000828Y023254D02*
X000440Y023254D01*
X000440Y023096D02*
X000828Y023096D01*
X000828Y022937D02*
X000440Y022937D01*
X000440Y022779D02*
X000828Y022779D01*
X000828Y022620D02*
X000440Y022620D01*
X000440Y022462D02*
X000828Y022462D01*
X000828Y022303D02*
X000440Y022303D01*
X000440Y022145D02*
X000828Y022145D01*
X000828Y021986D02*
X000440Y021986D01*
X000440Y021828D02*
X000828Y021828D01*
X000828Y021669D02*
X000440Y021669D01*
X000440Y021511D02*
X000828Y021511D01*
X000828Y021352D02*
X000440Y021352D01*
X000440Y021194D02*
X000828Y021194D01*
X000828Y021035D02*
X000440Y021035D01*
X000440Y020877D02*
X000828Y020877D01*
X000828Y020718D02*
X000440Y020718D01*
X000440Y020560D02*
X000828Y020560D01*
X000828Y020401D02*
X000440Y020401D01*
X000440Y020243D02*
X000828Y020243D01*
X000828Y020084D02*
X000440Y020084D01*
X000440Y019926D02*
X000828Y019926D01*
X000828Y019767D02*
X000440Y019767D01*
X000440Y019609D02*
X000828Y019609D01*
X000828Y019450D02*
X000440Y019450D01*
X000440Y019292D02*
X000828Y019292D01*
X000828Y019133D02*
X000440Y019133D01*
X000440Y018975D02*
X000828Y018975D01*
X000828Y018816D02*
X000440Y018816D01*
X000440Y018658D02*
X000828Y018658D01*
X000828Y018499D02*
X000440Y018499D01*
X000440Y018341D02*
X000828Y018341D01*
X000828Y018182D02*
X000440Y018182D01*
X000440Y018024D02*
X000828Y018024D01*
X000828Y017865D02*
X000440Y017865D01*
X000440Y017707D02*
X000828Y017707D01*
X000828Y017548D02*
X000440Y017548D01*
X000440Y017390D02*
X000828Y017390D01*
X000828Y017231D02*
X000440Y017231D01*
X000440Y017073D02*
X000828Y017073D01*
X000828Y016914D02*
X000440Y016914D01*
X000440Y016756D02*
X000828Y016756D01*
X002558Y019922D02*
X002524Y020003D01*
X002370Y020158D01*
X002288Y020192D01*
X002370Y020226D01*
X002524Y020380D01*
X002558Y020462D01*
X003107Y020462D01*
X003130Y020406D01*
X003272Y020264D01*
X003458Y020187D01*
X003658Y020187D01*
X003844Y020264D01*
X003986Y020406D01*
X004009Y020462D01*
X004130Y020462D01*
X004126Y020456D01*
X004090Y020386D01*
X004065Y020310D01*
X004053Y020232D01*
X004053Y020192D01*
X004558Y020192D01*
X004558Y020192D01*
X004053Y020192D01*
X004053Y020152D01*
X004065Y020074D01*
X004090Y019998D01*
X004126Y019927D01*
X004130Y019922D01*
X002558Y019922D01*
X002556Y019926D02*
X004127Y019926D01*
X004064Y020084D02*
X002444Y020084D01*
X002386Y020243D02*
X003323Y020243D01*
X003135Y020401D02*
X002533Y020401D01*
X002558Y020922D02*
X002524Y021003D01*
X002370Y021158D01*
X002288Y021192D01*
X002370Y021226D01*
X002524Y021380D01*
X002608Y021582D01*
X002608Y021801D01*
X002587Y021853D01*
X003166Y022432D01*
X003610Y022432D01*
X003705Y022471D01*
X004431Y023198D01*
X004458Y023187D01*
X004658Y023187D01*
X004684Y023198D01*
X004798Y023084D01*
X004798Y022580D01*
X004787Y022580D01*
X004681Y022475D01*
X004681Y021775D01*
X004742Y021714D01*
X004702Y021714D01*
X004702Y021277D01*
X004666Y021277D01*
X004666Y021714D01*
X004463Y021714D01*
X004418Y021702D01*
X004377Y021678D01*
X004343Y021645D01*
X004319Y021604D01*
X004307Y021558D01*
X004307Y021277D01*
X004666Y021277D01*
X004666Y021240D01*
X004307Y021240D01*
X004307Y020959D01*
X004317Y020922D01*
X004009Y020922D01*
X003986Y020978D01*
X003844Y021120D01*
X003659Y021197D01*
X003676Y021199D01*
X003752Y021224D01*
X003823Y021260D01*
X003887Y021307D01*
X003943Y021363D01*
X003990Y021427D01*
X004026Y021498D01*
X004051Y021574D01*
X004063Y021652D01*
X004063Y021692D01*
X004063Y021732D01*
X004051Y021810D01*
X004026Y021886D01*
X003990Y021956D01*
X003943Y022021D01*
X003887Y022077D01*
X003823Y022124D01*
X003752Y022160D01*
X003676Y022184D01*
X003598Y022197D01*
X003558Y022197D01*
X003558Y021692D01*
X003558Y021692D01*
X003558Y022197D01*
X003518Y022197D01*
X003440Y022184D01*
X003364Y022160D01*
X003293Y022124D01*
X003229Y022077D01*
X003173Y022021D01*
X003126Y021956D01*
X003090Y021886D01*
X003065Y021810D01*
X003053Y021732D01*
X003053Y021692D01*
X003558Y021692D01*
X004063Y021692D01*
X003558Y021692D01*
X003558Y021692D01*
X003558Y021692D01*
X003053Y021692D01*
X003053Y021652D01*
X003065Y021574D01*
X003090Y021498D01*
X003126Y021427D01*
X003173Y021363D01*
X003229Y021307D01*
X003293Y021260D01*
X003364Y021224D01*
X003440Y021199D01*
X003457Y021197D01*
X003272Y021120D01*
X003130Y020978D01*
X003107Y020922D01*
X002558Y020922D01*
X002493Y021035D02*
X003187Y021035D01*
X003450Y021194D02*
X002292Y021194D01*
X002496Y021352D02*
X003184Y021352D01*
X003086Y021511D02*
X002578Y021511D01*
X002608Y021669D02*
X003053Y021669D01*
X003071Y021828D02*
X002597Y021828D01*
X002720Y021986D02*
X003148Y021986D01*
X003334Y022145D02*
X002878Y022145D01*
X003037Y022303D02*
X004681Y022303D01*
X004681Y022145D02*
X003782Y022145D01*
X003558Y022145D02*
X003558Y022145D01*
X003558Y021986D02*
X003558Y021986D01*
X003558Y021828D02*
X003558Y021828D01*
X003968Y021986D02*
X004681Y021986D01*
X004681Y021828D02*
X004045Y021828D01*
X004063Y021669D02*
X004367Y021669D01*
X004307Y021511D02*
X004030Y021511D01*
X003932Y021352D02*
X004307Y021352D01*
X004307Y021194D02*
X003666Y021194D01*
X003929Y021035D02*
X004307Y021035D01*
X004666Y021352D02*
X004702Y021352D01*
X004702Y021511D02*
X004666Y021511D01*
X004666Y021669D02*
X004702Y021669D01*
X005058Y022125D02*
X005058Y022692D01*
X005058Y023192D01*
X004558Y023692D01*
X003558Y022692D01*
X003058Y022692D01*
X002058Y021692D01*
X002603Y022620D02*
X002618Y022620D01*
X002608Y022712D02*
X002608Y022735D01*
X002594Y022821D01*
X002568Y022903D01*
X002528Y022980D01*
X002477Y023050D01*
X002416Y023111D01*
X002346Y023162D01*
X002269Y023202D01*
X002187Y023228D01*
X002101Y023242D01*
X002078Y023242D01*
X002078Y022712D01*
X002608Y022712D01*
X002601Y022779D02*
X002777Y022779D01*
X002971Y022937D02*
X002550Y022937D01*
X002432Y023096D02*
X003594Y023096D01*
X003558Y023187D02*
X003558Y023692D01*
X003558Y023692D01*
X003558Y023187D01*
X003558Y023254D02*
X003558Y023254D01*
X003558Y023413D02*
X003558Y023413D01*
X003558Y023571D02*
X003558Y023571D01*
X003558Y023730D02*
X003558Y023730D01*
X003558Y023888D02*
X003558Y023888D01*
X003558Y024047D02*
X003558Y024047D01*
X003917Y024047D02*
X004199Y024047D01*
X004093Y023888D02*
X004025Y023888D01*
X004329Y023096D02*
X004787Y023096D01*
X004798Y022937D02*
X004171Y022937D01*
X004012Y022779D02*
X004798Y022779D01*
X004798Y022620D02*
X003854Y022620D01*
X003681Y022462D02*
X004681Y022462D01*
X005058Y022692D02*
X005558Y023192D01*
X007558Y023192D01*
X008058Y023692D01*
X008058Y024192D01*
X008315Y024681D02*
X008801Y024681D01*
X008610Y024522D02*
X008506Y024522D01*
X007801Y024681D02*
X007315Y024681D01*
X007506Y024522D02*
X007610Y024522D01*
X007588Y023888D02*
X007527Y023888D01*
X007373Y023730D02*
X007728Y023730D01*
X007569Y023571D02*
X005055Y023571D01*
X005063Y023730D02*
X005759Y023730D01*
X005599Y023888D02*
X005023Y023888D01*
X004917Y024047D02*
X005527Y024047D01*
X006038Y024047D02*
X006078Y024047D01*
X006078Y023888D02*
X006038Y023888D01*
X006038Y023730D02*
X006078Y023730D01*
X006357Y023730D02*
X006742Y023730D01*
X006588Y023888D02*
X006517Y023888D01*
X006498Y024522D02*
X006610Y024522D01*
X006801Y024681D02*
X006310Y024681D01*
X005411Y023413D02*
X005205Y023413D01*
X004098Y020401D02*
X003981Y020401D01*
X004055Y020243D02*
X003793Y020243D01*
X002078Y022779D02*
X002038Y022779D01*
X002038Y022937D02*
X002078Y022937D01*
X002078Y023096D02*
X002038Y023096D01*
X000795Y024364D02*
X000440Y024364D01*
X000440Y024522D02*
X000676Y024522D01*
X000640Y024681D02*
X000440Y024681D01*
X000440Y024839D02*
X000667Y024839D01*
X000773Y024998D02*
X000440Y024998D01*
X000440Y025156D02*
X012539Y025156D01*
X012583Y025112D02*
X012478Y025217D01*
X012478Y025666D01*
X012583Y025772D01*
X013333Y025772D01*
X013438Y025666D01*
X013438Y025217D01*
X013333Y025112D01*
X012583Y025112D01*
X012478Y025315D02*
X000440Y025315D01*
X000440Y025473D02*
X012478Y025473D01*
X012478Y025632D02*
X000440Y025632D01*
X000440Y025790D02*
X016420Y025790D01*
X016420Y025632D02*
X015634Y025632D01*
X015638Y025616D02*
X015626Y025661D01*
X015602Y025702D01*
X015568Y025736D01*
X015527Y025760D01*
X015482Y025772D01*
X015158Y025772D01*
X015158Y025442D01*
X015158Y025442D01*
X015158Y025772D01*
X014834Y025772D01*
X014788Y025760D01*
X014747Y025736D01*
X014714Y025702D01*
X014690Y025661D01*
X014678Y025616D01*
X014678Y025442D01*
X015158Y025442D01*
X015638Y025442D01*
X015638Y025616D01*
X015638Y025473D02*
X016420Y025473D01*
X016420Y025315D02*
X015638Y025315D01*
X015638Y025268D02*
X015638Y025442D01*
X015158Y025442D01*
X015158Y025442D01*
X015158Y025442D01*
X014678Y025442D01*
X014678Y025268D01*
X014690Y025222D01*
X014714Y025181D01*
X014747Y025148D01*
X014788Y025124D01*
X014834Y025112D01*
X015158Y025112D01*
X015482Y025112D01*
X015527Y025124D01*
X015568Y025148D01*
X015602Y025181D01*
X015626Y025222D01*
X015638Y025268D01*
X015577Y025156D02*
X016420Y025156D01*
X015158Y025156D02*
X015158Y025156D01*
X015158Y025112D02*
X015158Y025442D01*
X015158Y025442D01*
X015158Y025112D01*
X015158Y025315D02*
X015158Y025315D01*
X015158Y025473D02*
X015158Y025473D01*
X015158Y025632D02*
X015158Y025632D01*
X014682Y025632D02*
X013438Y025632D01*
X013438Y025473D02*
X014678Y025473D01*
X014678Y025315D02*
X013438Y025315D01*
X013377Y025156D02*
X014739Y025156D01*
X014717Y024205D02*
X013399Y024205D01*
X013438Y024047D02*
X014678Y024047D01*
X014678Y023888D02*
X013438Y023888D01*
X013438Y023730D02*
X014678Y023730D01*
X011831Y022145D02*
X011288Y022145D01*
X011288Y022303D02*
X011733Y022303D01*
X011607Y022462D02*
X011288Y022462D01*
X011311Y022620D02*
X011553Y022620D01*
X011638Y021986D02*
X011288Y021986D01*
X011288Y021828D02*
X011568Y021828D01*
X011553Y021669D02*
X011288Y021669D01*
X011288Y021511D02*
X011586Y021511D01*
X011684Y021352D02*
X011288Y021352D01*
X011288Y021194D02*
X011828Y021194D01*
X011828Y021035D02*
X011288Y021035D01*
X011288Y020877D02*
X011828Y020877D01*
X011828Y020718D02*
X011288Y020718D01*
X011251Y020560D02*
X011648Y020560D01*
X011549Y020401D02*
X011092Y020401D01*
X010934Y020243D02*
X011508Y020243D01*
X011508Y020084D02*
X011203Y020084D01*
X011413Y019926D02*
X011573Y019926D01*
X011476Y019767D02*
X011705Y019767D01*
X010913Y020084D02*
X010791Y020084D01*
X010632Y017548D02*
X012089Y017548D01*
X011930Y017390D02*
X010754Y017390D01*
X010798Y017231D02*
X011772Y017231D01*
X011613Y017073D02*
X010786Y017073D01*
X010711Y016914D02*
X011455Y016914D01*
X011296Y016756D02*
X010487Y016756D01*
X010556Y016597D02*
X011138Y016597D01*
X010979Y016439D02*
X010727Y016439D01*
X010790Y016280D02*
X010821Y016280D01*
X010058Y016280D02*
X010058Y016280D01*
X010058Y016439D02*
X010058Y016439D01*
X010058Y016597D02*
X010058Y016597D01*
X013934Y014854D02*
X014530Y014854D01*
X014412Y015012D02*
X014030Y015012D01*
X014063Y015171D02*
X014254Y015171D01*
X014095Y015329D02*
X014048Y015329D01*
X010610Y024522D02*
X010506Y024522D01*
X010315Y024681D02*
X010801Y024681D01*
X009801Y024681D02*
X009315Y024681D01*
X009506Y024522D02*
X009610Y024522D01*
D11*
X010058Y024192D03*
X011058Y024192D03*
X009058Y024192D03*
X008058Y024192D03*
X007058Y024192D03*
X006058Y024192D03*
X002058Y022692D03*
X002058Y021692D03*
X002058Y020692D03*
X002058Y019692D03*
X002058Y018692D03*
X002058Y017692D03*
X002058Y016692D03*
X002058Y015692D03*
X002058Y014692D03*
X002058Y013692D03*
X002058Y012692D03*
X002558Y010692D03*
X002558Y009692D03*
X002558Y008692D03*
X012058Y016192D03*
X012058Y020192D03*
X015058Y020692D03*
X015058Y021692D03*
X015058Y022692D03*
X015058Y019692D03*
X015058Y018692D03*
X015058Y017692D03*
X015058Y016692D03*
X015058Y015692D03*
X015058Y014692D03*
X015058Y013692D03*
X015058Y012692D03*
X015058Y011692D03*
X015058Y010692D03*
D12*
X005432Y021259D03*
X005058Y022125D03*
X004684Y021259D03*
D13*
X004558Y020192D03*
X005558Y020192D03*
X003558Y020692D03*
X003558Y021692D03*
X003558Y023692D03*
X004558Y023692D03*
X012058Y022692D03*
X012058Y021692D03*
X013558Y015192D03*
X013558Y014192D03*
D14*
X010338Y014192D02*
X009778Y014192D01*
X009778Y013192D02*
X010338Y013192D01*
X010338Y012192D02*
X009778Y012192D01*
X009778Y011192D02*
X010338Y011192D01*
X010338Y010192D02*
X009778Y010192D01*
X009778Y009192D02*
X010338Y009192D01*
X007338Y009192D02*
X006778Y009192D01*
X006778Y010192D02*
X007338Y010192D01*
X007338Y011192D02*
X006778Y011192D01*
X006778Y012192D02*
X007338Y012192D01*
X007338Y013192D02*
X006778Y013192D01*
X006778Y014192D02*
X007338Y014192D01*
X007338Y015192D02*
X006778Y015192D01*
X006778Y016192D02*
X007338Y016192D01*
X007338Y017192D02*
X006778Y017192D01*
X006778Y018192D02*
X007338Y018192D01*
X007338Y019192D02*
X006778Y019192D01*
X006778Y020192D02*
X007338Y020192D01*
X007338Y021192D02*
X006778Y021192D01*
X006778Y022192D02*
X007338Y022192D01*
X009778Y022192D02*
X010338Y022192D01*
X010338Y021192D02*
X009778Y021192D01*
X009778Y020192D02*
X010338Y020192D01*
X010338Y019192D02*
X009778Y019192D01*
X009778Y018192D02*
X010338Y018192D01*
X010338Y017192D02*
X009778Y017192D01*
X009778Y016192D02*
X010338Y016192D01*
X010338Y015192D02*
X009778Y015192D01*
D15*
X015245Y007276D03*
X015245Y005276D03*
D16*
X015158Y023942D03*
X015158Y025442D03*
X012958Y025442D03*
X012958Y023942D03*
D17*
X015058Y012692D02*
X015180Y012680D01*
X013080Y010580D01*
X013080Y003930D01*
X013680Y004680D02*
X013680Y010180D01*
X015180Y011680D01*
X015058Y011692D01*
X015058Y010692D02*
X015180Y010680D01*
X014180Y009680D01*
X014180Y004680D01*
X015180Y003680D01*
X015180Y003180D01*
X014680Y003680D02*
X013680Y004680D01*
X006130Y009530D02*
X004880Y008280D01*
X004880Y001830D01*
X002680Y012680D02*
X002180Y012680D01*
X002058Y012692D01*
X002680Y012680D02*
X004180Y014180D01*
D18*
X004180Y014180D03*
X014680Y003680D03*
X015180Y003180D03*
D19*
X011058Y008192D02*
X011558Y008692D01*
X011558Y013192D01*
X012058Y013692D01*
X014058Y013692D01*
X014558Y014192D01*
X016058Y014192D01*
X016058Y015192D01*
X015558Y015692D01*
X015058Y015692D01*
X014058Y015692D02*
X015058Y014692D01*
X014058Y015692D02*
X012558Y015692D01*
X011058Y014192D01*
X011058Y009692D01*
X010558Y009192D01*
X010058Y009192D01*
X011058Y008192D02*
X008058Y008192D01*
X007058Y009192D01*
X005480Y010330D02*
X005480Y010830D01*
X006330Y011680D01*
X007580Y011680D01*
X009030Y013130D01*
X009030Y014042D01*
X009180Y014192D01*
X010058Y014192D01*
X012058Y016192D01*
X012558Y017692D02*
X015058Y017692D01*
X012558Y017692D02*
X010558Y015692D01*
X009058Y015692D01*
X009058Y014692D01*
X009180Y014192D02*
X008558Y014192D01*
X008058Y014692D01*
X008058Y015192D01*
X007058Y016192D01*
X008058Y016692D02*
X004058Y016692D01*
X002058Y014692D01*
X002058Y015692D02*
X001058Y016692D01*
X001058Y024692D01*
X002058Y020692D02*
X003558Y020692D01*
X005558Y020692D01*
X005558Y021133D01*
X005432Y021259D01*
X005558Y020692D02*
X005558Y020192D01*
X006558Y019692D02*
X007058Y020192D01*
X010058Y023192D01*
X010058Y024192D01*
X011058Y024192D02*
X011558Y024192D01*
X012058Y023692D01*
X012058Y022692D01*
X011558Y023192D02*
X011058Y022692D01*
X011058Y020692D01*
X010558Y020192D01*
X010058Y020192D01*
X010058Y019192D02*
X009058Y018192D01*
X009058Y017692D01*
X008058Y016692D01*
X008558Y016692D02*
X008558Y015692D01*
X008558Y016692D02*
X010058Y018192D01*
X011058Y019692D02*
X009058Y019692D01*
X007558Y018192D01*
X007058Y018192D01*
X007558Y018692D02*
X003058Y018692D01*
X002058Y017692D01*
X002058Y016692D02*
X002558Y016692D01*
X003558Y017692D01*
X008058Y017692D01*
X007558Y018692D02*
X008058Y019192D01*
X008058Y020192D01*
X010058Y022192D01*
X009058Y022692D02*
X009058Y024192D01*
X009058Y022692D02*
X007558Y021192D01*
X007058Y021192D01*
X006558Y019692D02*
X002058Y019692D01*
X003758Y019192D02*
X007058Y019192D01*
X006058Y014692D02*
X003058Y014692D01*
X002058Y013692D01*
X002558Y010692D02*
X003558Y010692D01*
X007058Y014192D01*
X007058Y013192D02*
X004058Y010192D01*
X004058Y008692D01*
X002558Y008692D01*
X012058Y020192D02*
X012058Y021692D01*
X015058Y022692D02*
X015058Y023842D01*
X015158Y023942D01*
D20*
X006130Y009530D03*
X005480Y010330D03*
X004880Y001830D03*
X013080Y003930D03*
D21*
X009058Y014692D03*
X008058Y017692D03*
X011058Y019692D03*
X011558Y023192D03*
X003758Y019192D03*
X001058Y024692D03*
D22*
X006058Y014692D03*
X008558Y015692D03*
M02*
