%
M48
M72
T01C0.0200
T02C0.0236
T03C0.0240
T04C0.0276
T05C0.0315
T06C0.0320
T07C0.0354
T08C0.0400
%
T01
X4180Y14180
X14680Y3680
X15180Y3180
T02
X4880Y1830
X6130Y9530
X5480Y10330
X13080Y3930
T03
X6058Y14692
X8558Y15692
T04
X9058Y14692
X8058Y17692
X5558Y20192
X4558Y20192
X3758Y19192
X3558Y20692
X3558Y21692
X3558Y23692
X4558Y23692
X1058Y24692
X11058Y19692
X12058Y21692
X12058Y22692
X11558Y23192
X13558Y15192
X13558Y14192
T05
X2558Y10692
X2558Y9692
X2558Y8692
T06
X7058Y9192
X7058Y10192
X7058Y11192
X7058Y12192
X7058Y13192
X7058Y14192
X7058Y15192
X7058Y16192
X7058Y17192
X7058Y18192
X7058Y19192
X7058Y20192
X7058Y21192
X7058Y22192
X10058Y22192
X10058Y21192
X10058Y20192
X10058Y19192
X10058Y18192
X10058Y17192
X10058Y16192
X10058Y15192
X10058Y14192
X10058Y13192
X10058Y12192
X10058Y11192
X10058Y10192
X10058Y9192
T07
X12058Y16192
X12058Y20192
T08
X11058Y24192
X10058Y24192
X9058Y24192
X8058Y24192
X7058Y24192
X6058Y24192
X2058Y22692
X2058Y21692
X2058Y20692
X2058Y19692
X2058Y18692
X2058Y17692
X2058Y16692
X2058Y15692
X2058Y14692
X2058Y13692
X2058Y12692
X15058Y12692
X15058Y13692
X15058Y14692
X15058Y15692
X15058Y16692
X15058Y17692
X15058Y18692
X15058Y19692
X15058Y20692
X15058Y21692
X15058Y22692
X15058Y11692
X15058Y10692
M30
