G75*
%MOIN*%
%OFA0B0*%
%FSLAX24Y24*%
%IPPOS*%
%LPD*%
%AMOC8*
5,1,8,0,0,1.08239X$1,22.5*
%
%ADD10C,0.0820*%
%ADD11R,0.0474X0.0631*%
%ADD12C,0.0730*%
%ADD13C,0.0640*%
%ADD14R,0.1680X0.0680*%
%ADD15R,0.0680X0.0380*%
%ADD16C,0.0556*%
D10*
X002558Y008692D03*
X002558Y009692D03*
X002558Y010692D03*
X002058Y012692D03*
X002058Y013692D03*
X002058Y014692D03*
X002058Y015692D03*
X002058Y016692D03*
X002058Y017692D03*
X002058Y018692D03*
X002058Y019692D03*
X002058Y020692D03*
X002058Y021692D03*
X002058Y022692D03*
X006058Y024192D03*
X007058Y024192D03*
X008058Y024192D03*
X009058Y024192D03*
X010058Y024192D03*
X011058Y024192D03*
X012058Y020192D03*
X012058Y016192D03*
X015058Y016692D03*
X015058Y017692D03*
X015058Y018692D03*
X015058Y019692D03*
X015058Y020692D03*
X015058Y021692D03*
X015058Y022692D03*
X015058Y015692D03*
X015058Y014692D03*
X015058Y013692D03*
X015058Y012692D03*
X015058Y011692D03*
X015058Y010692D03*
D11*
X005432Y021259D03*
X005058Y022125D03*
X004684Y021259D03*
D12*
X004558Y020192D03*
X005558Y020192D03*
X003558Y020692D03*
X003558Y021692D03*
X003558Y023692D03*
X004558Y023692D03*
X012058Y022692D03*
X012058Y021692D03*
X013558Y015192D03*
X013558Y014192D03*
D13*
X010338Y014192D02*
X009778Y014192D01*
X009778Y013192D02*
X010338Y013192D01*
X010338Y012192D02*
X009778Y012192D01*
X009778Y011192D02*
X010338Y011192D01*
X010338Y010192D02*
X009778Y010192D01*
X009778Y009192D02*
X010338Y009192D01*
X007338Y009192D02*
X006778Y009192D01*
X006778Y010192D02*
X007338Y010192D01*
X007338Y011192D02*
X006778Y011192D01*
X006778Y012192D02*
X007338Y012192D01*
X007338Y013192D02*
X006778Y013192D01*
X006778Y014192D02*
X007338Y014192D01*
X007338Y015192D02*
X006778Y015192D01*
X006778Y016192D02*
X007338Y016192D01*
X007338Y017192D02*
X006778Y017192D01*
X006778Y018192D02*
X007338Y018192D01*
X007338Y019192D02*
X006778Y019192D01*
X006778Y020192D02*
X007338Y020192D01*
X007338Y021192D02*
X006778Y021192D01*
X006778Y022192D02*
X007338Y022192D01*
X009778Y022192D02*
X010338Y022192D01*
X010338Y021192D02*
X009778Y021192D01*
X009778Y020192D02*
X010338Y020192D01*
X010338Y019192D02*
X009778Y019192D01*
X009778Y018192D02*
X010338Y018192D01*
X010338Y017192D02*
X009778Y017192D01*
X009778Y016192D02*
X010338Y016192D01*
X010338Y015192D02*
X009778Y015192D01*
D14*
X015245Y007276D03*
X015245Y005276D03*
D15*
X015158Y023942D03*
X015158Y025442D03*
X012958Y025442D03*
X012958Y023942D03*
D16*
X011558Y023192D03*
X011058Y019692D03*
X008058Y017692D03*
X009058Y014692D03*
X003758Y019192D03*
X001058Y024692D03*
M02*
